<svg width="400" height="337" viewBox="0 0 400 337" fill="none" xmlns="http://www.w3.org/2000/svg">
<g clip-path="url(#clip0_3199_9021)">
<path d="M19.6593 179.027C17.1978 173.927 -7.80194 120.129 18.6862 77.3126C38.1196 45.9005 74.7675 37.371 79.4498 36.3511C125.406 26.3508 141.272 57.889 190.466 51.9138C232.171 46.8481 233.365 23.062 273.406 17.8487C312.516 12.7566 361.934 30.1882 383.872 63.6069C419.121 117.303 378.366 204.564 323.84 244.663C229.02 314.397 61.1078 264.915 19.6593 179.027Z" stroke="#8577B6" stroke-width="1.95586" stroke-miterlimit="10" stroke-dasharray="4.89 4.89"/>
<path d="M56.7316 236.16C53.0164 232.291 14.6826 191.178 25.2423 144.137C32.9894 109.626 62.8671 90.5703 66.7065 88.1998C104.382 64.9359 127.928 88.6643 169.682 68.0545C205.081 50.5818 198.976 28.6234 232.856 11.5302C265.95 -5.16498 314.952 -4.59876 344.438 18.9625C391.816 56.819 382.008 148.604 345.807 201.835C282.855 294.401 119.292 301.324 56.7316 236.16Z" fill="#F0EEF6"/>
<path d="M2.16316 281.34H397.833C399.016 281.34 399.984 280.372 399.984 279.189C399.984 278.006 399.016 277.038 397.833 277.038H2.16316C0.979868 277.038 0.0117188 278.006 0.0117188 279.189C0.0117187 280.372 0.979868 281.34 2.16316 281.34Z" fill="#8577B6"/>
<path d="M89.4918 324.565H178.874C180.058 324.565 181.026 323.596 181.026 322.413C181.026 321.23 180.058 320.262 178.874 320.262H89.4918C88.3085 320.262 87.3403 321.23 87.3403 322.413C87.3403 323.596 88.3085 324.565 89.4918 324.565Z" fill="#8577B6"/>
<path d="M19.0811 336.593H89.5898C90.773 336.593 91.7412 335.625 91.7412 334.442C91.7412 333.259 90.773 332.291 89.5898 332.291H19.0811C17.8978 332.291 16.9297 333.259 16.9297 334.442C16.9297 335.625 17.8978 336.593 19.0811 336.593Z" fill="#B9B1D5"/>
<path d="M258.087 298.65H358.52C359.703 298.65 360.671 297.681 360.671 296.498C360.671 295.315 359.703 294.347 358.52 294.347H258.087C256.903 294.347 255.935 295.315 255.935 296.498C255.935 297.681 256.903 298.65 258.087 298.65Z" fill="#B9B1D5"/>
<path d="M341.797 313.612H376.025C377.208 313.612 378.176 312.644 378.176 311.461C378.176 310.277 377.208 309.309 376.025 309.309H341.797C340.614 309.309 339.646 310.277 339.646 311.461C339.646 312.644 340.614 313.612 341.797 313.612Z" fill="#F0EEF6"/>
<path d="M307.024 276.972L152.981 277.001C148.575 277.002 145.004 273.502 145.003 269.183L144.963 51.9382C144.962 47.6197 148.532 44.1187 152.938 44.1177L306.981 44.0894C311.387 44.0884 314.958 47.5884 314.959 51.9069L314.999 269.152C315 273.469 311.43 276.971 307.024 276.972Z" fill="#8577B6"/>
<path d="M314.999 269.152C315 273.47 311.429 276.971 307.024 276.972L176.686 276.997L165.821 276.999L152.98 277.001C148.575 277.002 145.003 273.502 145.003 269.183L145.001 261.78L144.995 229.38L144.99 201.424L144.988 193.178L144.961 51.9382C144.96 47.6197 148.531 44.1187 152.936 44.1177L179.574 44.1128C182.759 44.1118 185.738 45.6599 187.525 48.2446L195.974 60.4697L199.88 66.1211C200.694 67.2985 202.048 68.0085 203.5 68.0153L257.66 68.3547C259.224 68.3625 260.675 67.5567 261.471 66.2355L264.956 60.454L272.033 48.7169C273.76 45.8516 276.903 44.0942 280.297 44.0933L306.981 44.0884C311.386 44.0874 314.958 47.5874 314.959 51.9059L314.999 269.152Z" fill="#8577B6"/>
<path d="M261.303 47.4749L239.132 47.4163V46.7278C239.131 42.375 235.071 38.8467 230.063 38.8477C225.055 38.8486 220.995 42.378 220.996 46.7307V47.4192L198.615 47.4857C196.089 47.4857 194.023 49.6958 194.024 52.3968C194.025 55.0979 196.091 57.307 198.617 57.306L261.305 57.2943C263.831 57.2943 265.898 55.0842 265.897 52.3832C265.897 49.6841 263.829 47.4749 261.303 47.4749Z" fill="#6755A4"/>
<path d="M291.846 265.019L151.551 254.768L166.351 55.1475L306.646 65.3981L291.846 265.019Z" fill="#6755A4"/>
<path d="M308.285 65.0143L167.485 54.5811L152.693 254.209L293.492 264.642L308.285 65.0143Z" fill="#998DC2"/>
<path d="M302.799 260.228L161.69 264.994L155.288 64.9271L296.397 60.1626L302.799 260.228Z" fill="#6755A4"/>
<path d="M297.338 59.532L156.229 64.0498L162.634 264.118L303.744 259.6L297.338 59.532Z" fill="#B9B1D5"/>
<path opacity="0.2" d="M309.165 146.366C307.952 175.335 305.849 209.222 289.549 233.722C279.356 247.345 263.554 255.79 251.372 258.87C246.637 260.321 239.962 261.973 231.74 262.76C226.701 262.757 221.661 262.755 216.623 262.752C192.75 262.757 169.076 261.127 144.977 258.258L144.996 230.363C172.656 174.779 164.503 120.158 160.961 60.46C208.248 60.4522 258.282 61.4282 305.559 61.4438C308.756 89.3959 310.191 118.613 309.165 146.366Z" fill="#6755A4"/>
<path d="M306.845 141.106C305.924 165.823 302.473 190.44 293.311 213.546C293.136 213.989 292.958 214.431 292.779 214.872C287.81 220.591 278.925 228.368 266.049 230.306C258.755 231.404 252.529 230.277 248.343 229.077C245.605 235.204 241.373 241.883 234.572 247.111C228.094 252.089 220.902 254.51 214.638 255.629C186.502 255.633 158.365 255.636 130.229 255.641C136.621 241.202 143.709 227.072 149.753 212.479C154.508 201 158.547 189.218 161.217 177.072C163.801 165.309 164.973 153.281 165.529 141.264C166.777 114.325 164.425 87.3662 163.064 60.4771C198.727 60.4683 234.391 60.4605 270.054 60.4536C281.451 60.4517 292.847 60.4497 304.243 60.4478C306.081 87.2801 307.847 114.199 306.845 141.106Z" fill="#F0EEF6"/>
<path d="M252.649 106.629C244.09 106.766 235.531 106.906 226.971 107.014C226.535 107.02 226.179 106.663 226.178 106.222C226.178 106.064 226.178 105.985 226.177 105.827C226.176 105.385 226.531 105.02 226.967 105.014C235.524 104.899 244.08 104.759 252.637 104.621C253.083 104.614 253.451 104.971 253.454 105.415C253.455 105.573 253.455 105.652 253.456 105.811C253.459 106.254 253.096 106.622 252.649 106.629Z" fill="#8577B6"/>
<path d="M298.007 112.233C274.32 112.6 250.631 113.051 226.942 113.277C226.508 113.281 226.156 112.926 226.16 112.487C226.161 112.331 226.162 112.251 226.163 112.095C226.166 111.656 226.524 111.293 226.959 111.288C250.627 111.039 274.294 110.593 297.961 110.22C298.406 110.213 298.779 110.571 298.788 111.015C298.792 111.174 298.794 111.253 298.797 111.412C298.808 111.856 298.452 112.226 298.007 112.233Z" fill="#8577B6"/>
<path d="M266.707 85.2334C243.391 85.5561 220.076 85.9277 196.762 86.3277C196.325 86.3355 195.952 85.9717 195.931 85.5199C195.924 85.3585 195.92 85.2774 195.913 85.116C195.892 84.6632 196.232 84.2867 196.669 84.2789C219.986 83.8858 243.302 83.5239 266.621 83.2149C267.064 83.209 267.442 83.5689 267.461 84.0149C267.468 84.1743 267.471 84.2535 267.478 84.4129C267.497 84.8569 267.15 85.2265 266.707 85.2334Z" fill="#8577B6"/>
<path d="M298.107 118.552C274.357 118.894 250.603 119.355 226.851 119.503C226.418 119.506 226.071 119.151 226.079 118.715C226.082 118.559 226.083 118.481 226.086 118.324C226.093 117.888 226.453 117.528 226.887 117.524C250.619 117.351 274.352 116.892 298.083 116.541C298.529 116.534 298.898 116.892 298.904 117.336C298.906 117.494 298.907 117.573 298.909 117.732C298.914 118.178 298.553 118.545 298.107 118.552Z" fill="#8577B6"/>
<path d="M285.029 125.027C265.587 125.274 246.143 125.634 226.699 125.692C226.266 125.693 225.923 125.34 225.936 124.906C225.94 124.751 225.943 124.673 225.947 124.518C225.958 124.084 226.321 123.728 226.754 123.726C246.183 123.648 265.612 123.285 285.04 123.028C285.492 123.022 285.86 123.378 285.858 123.82C285.857 123.977 285.857 124.057 285.856 124.214C285.854 124.656 285.481 125.021 285.029 125.027Z" fill="#8577B6"/>
<path d="M291.392 131.223C269.758 131.46 248.118 131.845 226.484 131.846C226.052 131.846 225.714 131.494 225.731 131.063C225.736 130.909 225.739 130.832 225.745 130.678C225.762 130.247 226.128 129.893 226.559 129.893C248.179 129.872 269.803 129.479 291.421 129.228C291.872 129.223 292.237 129.579 292.231 130.02C292.229 130.177 292.228 130.255 292.225 130.413C292.219 130.854 291.843 131.218 291.392 131.223Z" fill="#8577B6"/>
<path d="M179.403 213.8C173.382 213.529 167.362 213.258 161.34 212.989C161.024 212.975 160.861 212.728 160.979 212.439C161.105 212.131 161.167 211.977 161.292 211.668C161.408 211.379 161.763 211.153 162.079 211.168C168.093 211.435 174.107 211.704 180.122 211.974C180.435 211.988 180.6 212.237 180.486 212.526C180.365 212.836 180.304 212.991 180.181 213.3C180.068 213.589 179.717 213.813 179.403 213.8Z" fill="#8577B6"/>
<path d="M208.284 220.867C191.914 220.141 175.546 219.402 159.176 218.675C158.734 218.655 158.512 218.315 158.683 217.918C158.744 217.776 158.774 217.705 158.836 217.563C159.006 217.166 159.507 216.857 159.948 216.876C176.303 217.607 192.657 218.348 209.01 219.079C209.452 219.098 209.685 219.439 209.525 219.834C209.468 219.974 209.439 220.046 209.382 220.187C209.222 220.581 208.727 220.887 208.284 220.867Z" fill="#8577B6"/>
<path d="M205.924 226.4C189.515 225.7 173.106 224.99 156.696 224.289C156.253 224.27 156.035 223.933 156.212 223.54C156.275 223.399 156.307 223.329 156.37 223.189C156.546 222.796 157.051 222.489 157.494 222.508C173.892 223.221 190.29 223.942 206.688 224.654C207.131 224.673 207.358 225.006 207.19 225.391C207.13 225.529 207.1 225.597 207.039 225.735C206.87 226.121 206.368 226.419 205.924 226.4Z" fill="#8577B6"/>
<path d="M194.326 231.451C180.932 230.922 167.539 230.39 154.144 229.863C153.701 229.845 153.486 229.512 153.667 229.121C153.731 228.981 153.764 228.912 153.828 228.772C154.009 228.381 154.518 228.075 154.962 228.093C168.35 228.637 181.737 229.185 195.125 229.731C195.567 229.749 195.786 230.075 195.609 230.455C195.546 230.591 195.514 230.658 195.452 230.794C195.276 231.173 194.768 231.469 194.326 231.451Z" fill="#8577B6"/>
<path d="M196.221 236.954C181.327 236.442 166.434 235.926 151.539 235.415C151.095 235.399 150.883 235.068 151.067 234.678C151.133 234.539 151.166 234.469 151.232 234.33C151.415 233.94 151.929 233.634 152.372 233.651C167.264 234.188 182.155 234.731 197.046 235.27C197.489 235.286 197.703 235.604 197.521 235.976C197.455 236.109 197.423 236.176 197.359 236.308C197.177 236.678 196.664 236.969 196.221 236.954Z" fill="#8577B6"/>
<path d="M219.635 158.82C205.331 158.808 191.028 158.796 176.724 158.784C176.294 158.784 175.979 158.431 176.022 158C176.038 157.846 176.046 157.769 176.061 157.615C176.104 157.185 176.489 156.834 176.917 156.835C191.214 156.86 205.509 156.886 219.805 156.911C220.234 156.912 220.554 157.257 220.517 157.679C220.504 157.83 220.497 157.905 220.484 158.055C220.447 158.477 220.064 158.821 219.635 158.82Z" fill="#8577B6"/>
<path d="M296.009 165.856C255.974 165.859 215.944 165.76 175.91 165.515C175.48 165.512 175.183 165.115 175.249 164.63C175.272 164.457 175.284 164.37 175.307 164.196C175.372 163.71 175.776 163.311 176.205 163.313C216.23 163.446 256.253 163.499 296.277 163.498C296.726 163.498 297.046 163.928 296.987 164.449C296.967 164.636 296.956 164.729 296.934 164.914C296.875 165.434 296.458 165.856 296.009 165.856Z" fill="#8577B6"/>
<path d="M295.044 173.041C274.44 173.063 253.836 173.083 233.233 173.105C213.767 173.125 194.283 172.57 174.819 172.289C174.387 172.283 174.104 171.895 174.187 171.426C174.216 171.257 174.231 171.173 174.26 171.005C174.342 170.535 174.76 170.151 175.191 170.157C215.256 170.633 255.303 170.815 295.371 170.791C295.82 170.791 296.129 171.2 296.057 171.698C296.032 171.876 296.019 171.964 295.993 172.142C295.92 172.637 295.493 173.041 295.044 173.041Z" fill="#8577B6"/>
<path d="M271.469 179.976C254.747 180.028 238.013 180.276 221.294 179.912C205.361 179.565 189.43 179.206 173.497 178.857C173.065 178.847 172.793 178.469 172.891 178.012C172.926 177.849 172.944 177.768 172.979 177.604C173.077 177.148 173.509 176.779 173.941 176.788C189.854 177.1 205.767 177.421 221.68 177.731C238.399 178.057 255.129 177.845 271.851 177.806C272.31 177.805 272.617 178.198 272.533 178.677C272.503 178.848 272.488 178.934 272.458 179.104C272.374 179.585 271.928 179.975 271.469 179.976Z" fill="#8577B6"/>
<path d="M281.158 186.551C262.541 186.663 243.838 187.289 225.227 186.765C207.473 186.265 189.719 185.744 171.966 185.237C171.532 185.224 171.271 184.854 171.383 184.41C171.423 184.251 171.444 184.172 171.484 184.014C171.596 183.57 172.041 183.215 172.475 183.226C190.207 183.697 207.939 184.181 225.671 184.645C244.287 185.132 262.981 184.57 281.602 184.477C282.057 184.475 282.351 184.85 282.254 185.308C282.218 185.472 282.201 185.554 282.167 185.717C282.067 186.175 281.613 186.549 281.158 186.551Z" fill="#8577B6"/>
<path d="M265.531 243.687C246.997 244.034 228.463 244.38 209.93 244.728C216.773 232.091 222.591 218.979 226.947 205.274C245.812 204.956 264.677 204.649 283.541 204.334C278.948 218.084 272.669 231.091 265.531 243.687Z" fill="#FCFCFD" stroke="#B9B1D5" stroke-width="0.0977928" stroke-miterlimit="10"/>
<path d="M260.36 238.109C247.306 238.414 234.251 238.718 221.196 239.024C225.783 230.107 229.84 220.953 233.21 211.506C246.438 211.236 259.666 210.97 272.893 210.701C269.377 220.137 265.114 229.236 260.36 238.109Z" fill="#6755A4"/>
<path d="M251.37 224.035C255.174 223.871 252.141 231.175 255.239 231.148C257.39 231.131 258.873 228.682 261.003 228.51C264.278 228.245 260.559 237.364 260.275 238.141C250.308 238.373 230.374 238.839 230.374 238.839C230.301 238.641 236.466 233.94 239.561 231.555C241.817 229.816 244.089 228.086 246.458 226.503C247.85 225.574 249.672 224.108 251.37 224.035Z" fill="#F0EEF6"/>
<path d="M234.38 221.705C239.656 221.55 232.945 234.741 238.463 234.64C241.99 234.575 244.442 230.872 247.976 230.742C251.658 230.606 251.659 235.908 251.539 238.344C241.442 238.58 231.346 238.815 221.249 239.051C224.108 234.621 226.653 229.973 229.605 225.605C230.716 223.963 232.172 221.77 234.38 221.705Z" fill="#8577B6"/>
<path d="M218.93 136.425C205.186 136.401 191.442 136.377 177.698 136.352C178.041 125.051 177.862 113.751 177.436 102.454C191.453 102.248 205.469 102.04 219.486 101.833C219.613 113.369 219.454 124.902 218.93 136.425Z" fill="#FCFCFD" stroke="#B9B1D5" stroke-width="0.0977928" stroke-miterlimit="10"/>
<path d="M212.929 131.307C203.304 131.31 193.679 131.313 184.054 131.316C184.206 123.393 184.136 115.471 183.924 107.548C193.693 107.425 203.461 107.301 213.23 107.178C213.287 115.223 213.198 123.267 212.929 131.307Z" fill="#6755A4"/>
<path d="M201.311 118.574C204.33 118.456 203.814 124.846 206.597 124.994C208.048 125.071 208.507 122.797 209.969 122.741C212.554 122.641 212.728 130.029 212.878 131.416C205.539 131.418 190.861 131.422 190.861 131.422C190.705 131.141 193.615 127.117 195.091 125.033C196.383 123.206 198.951 118.667 201.311 118.574Z" fill="#F0EEF6"/>
<path d="M187.918 116.26C190.188 116.277 191.008 120.359 191.531 121.964C192.112 123.748 192.981 127.729 195.364 127.786C197.719 127.841 198.619 124.451 201.059 124.477C204.04 124.51 205.636 129.241 206.436 131.418C198.992 131.42 191.549 131.422 184.105 131.424C184.611 127.492 184.835 123.461 185.624 119.572C185.876 118.329 186.271 116.247 187.918 116.26Z" fill="#8577B6"/>
<path d="M292.779 214.873C292.403 215.894 291.846 217.299 291.075 218.927C289.115 223.061 287.007 226.011 285.888 227.484C284.419 229.415 283.18 230.714 282.003 231.974C277.65 236.633 273.763 239.602 272.606 240.471C263.635 247.21 254.911 249.943 248.588 251.865C243.961 253.271 237.441 254.873 229.407 255.636C224.484 255.633 219.561 255.631 214.638 255.628C220.901 254.509 228.094 252.089 234.572 247.11C241.373 241.883 245.605 235.203 248.343 229.076C252.529 230.276 258.756 231.404 266.048 230.305C278.925 228.367 287.809 220.591 292.779 214.873Z" fill="#B9B1D5"/>
<path d="M257.765 49.9147L238.744 49.856V48.3989C238.743 44.54 234.619 41.4126 229.532 41.4136C224.445 41.4146 220.322 44.5439 220.323 48.4028V49.8599L201.28 49.9264C200.788 49.9264 200.389 50.3469 200.389 50.8652L200.391 64.1885C200.391 64.7068 200.79 65.1264 201.282 65.1264L257.768 65.1156C258.26 65.1156 258.659 64.6951 258.659 64.1768L258.656 50.8535C258.657 50.3352 258.258 49.9147 257.765 49.9147Z" fill="#6755A4"/>
<path d="M258.203 49.3527L239.182 49.294V47.8369C239.181 43.978 235.057 40.8506 229.97 40.8516C224.883 40.8525 220.76 43.9819 220.761 47.8408V49.2979L201.718 49.3644C201.226 49.3644 200.827 49.7849 200.827 50.3032L200.83 63.6265C200.83 64.1448 201.229 64.5644 201.721 64.5644L258.207 64.5536C258.698 64.5536 259.097 64.1331 259.097 63.6148L259.095 50.2915C259.094 49.7722 258.695 49.3527 258.203 49.3527Z" fill="#8577B6"/>
<path opacity="0.5" d="M239.181 49.2929V48.1488C239.18 45.1192 235.056 42.6636 229.97 42.6646C224.883 42.6655 220.76 45.1221 220.761 48.1527V49.2969L239.181 49.2929Z" fill="#6755A4"/>
<path opacity="0.5" d="M258.205 59.4858L201.72 59.4966C201.228 59.4966 200.829 59.5778 200.829 59.6785V62.2553C200.829 62.3551 201.228 62.4372 201.72 62.4362L258.205 62.4255C258.697 62.4255 259.096 62.3443 259.096 62.2436V59.6668C259.096 59.567 258.697 59.4858 258.205 59.4858Z" fill="#6755A4"/>
<path opacity="0.3" d="M185.295 206.936C185.295 206.946 185.294 206.957 185.294 206.968C185.25 207.942 185.144 211.704 185.01 216.468C184.57 232.117 184.183 245.255 183.906 247.332C183.085 257.693 180.608 267.762 176.687 276.996L165.821 276.998C169.594 268.394 172.077 258.343 173.064 247.578C173.068 247.532 173.073 247.486 173.081 247.44C173.34 245.831 173.865 227.174 174.145 217.15C174.28 212.319 174.388 208.503 174.436 207.442C174.437 207.437 174.437 207.433 174.437 207.43C174.44 207.365 174.378 207.256 174.327 207.216C174.184 207.213 174.045 207.197 173.912 207.166C172.437 207.219 171.288 207.187 170.434 207.072C163.246 206.641 156.056 205.239 149.062 202.901C147.693 202.443 146.336 201.951 144.991 201.424L144.989 193.178C156.245 199.057 168.838 202.315 181.155 202.46C181.188 202.46 181.222 202.462 181.256 202.463C181.318 202.464 181.379 202.467 181.441 202.472C182.527 202.557 183.525 203.08 184.258 203.949C184.944 204.764 185.312 205.782 185.297 206.821C185.298 206.873 185.296 206.913 185.295 206.936Z" fill="#6755A4"/>
<path d="M183.247 206.875L176.483 207.535L175.434 242.538C175.371 244.177 175.266 245.924 175.105 247.766C174.909 249.988 174.631 252.347 174.243 254.819C173.909 256.949 173.493 259.163 172.979 261.447C172.514 263.509 171.969 265.626 171.33 267.79C170.76 269.721 170.115 271.688 169.388 273.682C169.361 273.754 169.335 273.827 169.308 273.9C168.767 275.364 168.173 276.809 167.534 278.233C166.775 279.922 165.95 281.58 165.074 283.206C163.95 285.29 162.74 287.318 161.47 289.282C159.678 292.052 157.769 294.695 155.816 297.186C152.458 301.47 148.971 305.308 145.736 308.579C140.219 314.157 135.434 318.091 133.265 319.796C132.951 320.042 132.588 320.184 132.218 320.22L138.493 320.246C138.864 320.21 139.227 320.068 139.54 319.821C141.71 318.117 146.984 313.498 152.5 307.92C155.735 304.649 159.222 300.811 162.58 296.527C164.533 294.035 166.443 291.393 168.234 288.622C169.503 286.659 170.714 284.631 171.839 282.547C172.715 280.922 173.539 279.263 174.298 277.574C174.938 276.15 175.532 274.706 176.072 273.241C176.098 273.168 176.126 273.095 176.152 273.023C176.88 271.029 177.524 269.062 178.094 267.131C178.733 264.968 179.278 262.85 179.743 260.788C180.258 258.505 180.673 256.291 181.008 254.16C181.396 251.688 181.674 249.328 181.869 247.106C182.03 245.265 182.136 243.517 182.199 241.878L183.247 206.875Z" fill="#8577B6"/>
<path d="M183.247 206.819C183.258 206.057 182.883 205.295 182.249 204.866C182.249 204.866 182.249 204.866 182.248 204.866C182.159 204.806 182.066 204.752 181.97 204.705H181.969C181.742 204.598 181.496 204.533 181.246 204.515C181.208 204.512 181.169 204.51 181.13 204.51L174.365 205.169C174.656 205.173 174.943 205.241 175.205 205.365C175.205 205.365 175.205 205.365 175.206 205.365C176.019 205.749 176.516 206.648 176.482 207.535L183.247 206.876C183.248 206.857 183.248 206.838 183.247 206.819Z" fill="#D0CAE3"/>
<path d="M170.637 205.03C171.879 205.105 173.124 205.15 174.366 205.168L181.131 204.509C165.617 204.327 150.26 199.472 137.263 191.041L130.499 191.7C142.455 199.449 156.396 204.194 170.637 205.03Z" fill="#8577B6"/>
<path d="M93.9053 204.508C93.8769 204.508 93.8486 204.509 93.8212 204.509C93.8202 204.509 93.8192 204.509 93.8192 204.509C93.7635 204.51 93.7087 204.513 93.654 204.518L86.8896 205.177C86.9444 205.172 86.9992 205.168 87.0549 205.168C87.0559 205.168 87.0569 205.168 87.0569 205.168C87.0852 205.168 87.1126 205.167 87.141 205.167C89.1457 205.138 91.3558 205.031 93.7391 204.798L100.503 204.139C98.1202 204.371 95.9091 204.479 93.9053 204.508Z" fill="#8577B6"/>
<path d="M174.366 205.169C168.514 205.089 160.876 204.346 152.268 201.77C143.007 198.998 135.636 195.035 130.498 191.701C130.469 191.7 118.256 199.001 109.071 201.77C100.526 204.346 92.9069 205.09 87.0569 205.169C85.8619 205.184 84.9299 206.256 85.0003 207.535L86.9249 242.538C87.4481 250.777 89.092 261.738 93.7489 273.682C102.834 296.974 125.223 315.476 130.768 319.79C131.145 320.081 131.586 320.229 132.026 320.229C132.462 320.229 132.897 320.084 133.265 319.795C138.739 315.493 160.885 296.984 169.389 273.681C173.749 261.737 175.117 250.776 175.435 242.537L176.484 207.534C176.52 206.255 175.562 205.183 174.366 205.169ZM171.061 244.86C170.78 252.155 169.568 261.859 165.713 272.437C158.19 293.072 138.602 309.46 133.758 313.27C133.434 313.524 133.051 313.652 132.667 313.654C132.44 313.753 132.198 313.803 131.956 313.803C131.559 313.803 131.162 313.671 130.824 313.408C125.834 309.523 105.684 292.873 97.508 271.909C93.3156 261.159 91.837 251.297 91.3657 243.881L89.6347 212.378C89.5712 211.228 90.4092 210.261 91.4859 210.247C96.7501 210.178 103.608 209.507 111.298 207.189C119.564 204.696 130.556 198.127 130.624 198.152C135.207 201.128 141.839 204.695 150.174 207.189C157.922 209.507 164.797 210.178 170.063 210.247C171.139 210.261 172.002 211.228 171.967 212.378L171.938 213.345C171.975 213.511 171.99 213.686 171.986 213.865L171.061 244.86Z" fill="#F0EEF6"/>
<path d="M135.068 248.588C135.055 247.475 134.683 246.452 134.072 245.645C133.31 245.002 132.35 244.618 131.311 244.618C128.874 244.618 126.924 246.733 126.956 249.343C126.97 250.455 127.343 251.478 127.953 252.285C128.264 252.547 128.607 252.766 128.976 252.933L128.98 253.28C129.204 253.438 129.441 253.575 129.69 253.688L129.785 261.239C129.789 261.549 129.865 261.841 129.995 262.097C130.236 262.233 130.51 262.31 130.8 262.31C131.743 262.31 132.497 261.493 132.485 260.483L132.391 252.955C133.985 252.248 135.093 250.56 135.068 248.588Z" fill="#F0EEF6"/>
<path d="M171.94 213.344C171.747 212.455 171.006 211.779 170.115 211.768C164.939 211.699 158.182 211.04 150.567 208.759C142.375 206.304 135.855 202.794 131.31 199.842C131.285 199.841 120.48 206.306 112.355 208.759C104.796 211.04 98.0565 211.698 92.8823 211.768C91.8241 211.781 91.0007 212.732 91.0623 213.864L92.7649 244.86C93.2284 252.154 94.6816 261.859 98.8026 272.436C106.838 293.061 126.643 309.445 131.55 313.265C131.882 313.524 132.273 313.653 132.666 313.653C133.051 313.652 133.434 313.525 133.758 313.27C138.601 309.46 158.189 293.071 165.712 272.436C169.567 261.859 170.779 252.155 171.06 244.86L171.986 213.864C171.993 213.685 171.977 213.511 171.94 213.344Z" fill="#998DC2"/>
<path d="M170.065 210.247C164.798 210.177 157.924 209.508 150.176 207.189C141.841 204.694 135.209 201.127 130.584 198.126C130.557 198.126 119.566 204.696 111.298 207.189C103.608 209.507 96.7506 210.176 91.4864 210.247C90.4097 210.262 89.5717 211.227 89.6352 212.378L91.3671 243.881C91.8385 251.295 93.3171 261.159 97.5095 271.909C105.685 292.872 125.835 309.523 130.826 313.407C131.164 313.67 131.562 313.802 131.957 313.802C132.2 313.802 132.44 313.753 132.663 313.654C132.274 313.654 131.884 313.524 131.551 313.265C126.645 309.444 106.841 293.062 98.8043 272.436C94.6833 261.859 93.2301 252.155 92.7665 244.86L91.064 213.864C91.0024 212.732 91.8258 211.781 92.8839 211.768C98.0581 211.699 104.798 211.04 112.356 208.758C120.482 206.306 131.287 199.842 131.351 199.867C135.857 202.794 142.377 206.305 150.568 208.758C158.183 211.04 164.94 211.699 170.116 211.768C171.007 211.779 171.749 212.454 171.941 213.343L171.97 212.376C172.003 211.227 171.141 210.261 170.065 210.247Z" fill="#6755A4"/>
<path d="M151.65 243.822C151.631 242.359 150.977 241.055 149.971 240.212C150.562 240.997 150.921 241.989 150.935 243.067L151.209 265.02C151.242 267.562 149.343 269.623 146.967 269.623H115.059C114.051 269.623 113.12 269.251 112.379 268.63C113.18 269.695 114.406 270.378 115.773 270.378H147.681C150.057 270.378 151.956 268.317 151.924 265.775L151.65 243.822Z" fill="#8577B6"/>
<path d="M143.525 230.614C143.477 226.787 141.907 223.342 139.442 220.937C141.493 223.282 142.767 226.416 142.81 229.859L142.901 237.094C142.913 237.084 142.922 237.074 142.931 237.066L142.949 238.464H143.624L143.525 230.614Z" fill="#8577B6"/>
<path d="M150.934 243.067C150.921 241.989 150.562 240.997 149.971 240.212C149.17 239.147 147.944 238.464 146.577 238.464H143.622H142.948H139.131H122.742H122.141H118.328H114.668C112.293 238.464 110.393 240.526 110.426 243.067L110.7 265.02C110.718 266.484 111.373 267.789 112.379 268.631C113.119 269.252 114.05 269.623 115.058 269.623H146.965C149.34 269.623 151.24 267.562 151.208 265.019L150.934 243.067ZM132.486 252.956L132.581 260.483C132.593 261.494 131.838 262.311 130.895 262.311C130.605 262.311 130.331 262.234 130.09 262.097C129.547 261.79 129.173 261.183 129.165 260.483L129.075 253.28L129.07 252.934C128.701 252.766 128.358 252.547 128.048 252.284C127.022 251.419 126.355 250.084 126.337 248.589C126.303 245.979 128.254 243.863 130.691 243.863C132.089 243.863 133.343 244.56 134.167 245.646C134.778 246.453 135.151 247.476 135.164 248.589C135.188 250.56 134.08 252.249 132.486 252.956Z" fill="#F0EEF6"/>
<path d="M142.81 229.859C142.767 226.416 141.493 223.282 139.442 220.937C137.163 218.331 133.925 216.699 130.351 216.699C123.561 216.699 118.13 222.592 118.221 229.86L118.311 237.066C118.464 237.209 119.157 237.822 120.184 237.822C120.217 237.822 120.249 237.821 120.283 237.82C121.087 237.79 121.717 237.396 122.002 237.172C122.001 237.14 121.925 231.133 121.925 231.133C121.862 226.046 125.663 221.92 130.417 221.92C132.973 221.92 135.283 223.113 136.883 225.007C138.258 226.635 139.107 228.781 139.138 231.133L139.213 237.147C139.486 237.363 140.186 237.822 141.078 237.822C141.111 237.822 141.144 237.821 141.178 237.82C142.085 237.786 142.693 237.287 142.902 237.094L142.81 229.859Z" fill="#F0EEF6"/>
<path d="M130.692 243.864C128.255 243.864 126.305 245.98 126.337 248.589C126.355 250.085 127.023 251.42 128.048 252.286C127.437 251.479 127.065 250.456 127.052 249.344C127.019 246.734 128.968 244.619 131.405 244.619C132.445 244.619 133.404 245.003 134.166 245.646C133.345 244.559 132.089 243.864 130.692 243.864Z" fill="#8577B6"/>
<path d="M139.24 238.342L139.211 237.146C139.211 237.146 139.211 237.101 139.211 237.078L139.137 231.133C139.107 228.781 138.257 226.635 136.882 225.006C135.343 223.556 133.327 222.675 131.129 222.675C126.377 222.675 122.575 226.801 122.639 231.887L122.713 237.833C122.715 238.044 122.725 238.255 122.741 238.463H139.148H139.244L139.24 238.342Z" fill="#998DC2"/>
<path d="M142.949 238.464H139.245L139.24 238.342L139.211 237.146L139.212 237.147C139.485 237.363 140.185 237.821 141.077 237.821C141.11 237.821 141.143 237.821 141.176 237.819C142.084 237.785 142.691 237.286 142.9 237.093C142.911 237.083 142.92 237.074 142.93 237.065L142.949 238.464Z" fill="#B9B1D5"/>
<path d="M130.416 221.92C125.663 221.92 121.862 226.045 121.925 231.132L121.999 237.077L121.998 237.173L121.982 238.464V238.47L122.743 238.464C122.727 238.255 122.717 238.044 122.714 237.833L122.64 231.888C122.576 226.8 126.378 222.675 131.13 222.675C133.328 222.675 135.344 223.557 136.883 225.007C135.284 223.113 132.973 221.92 130.416 221.92Z" fill="#8577B6"/>
<path d="M121.998 237.173L121.982 238.464H118.344L118.311 237.066C118.464 237.208 119.156 237.822 120.183 237.822C120.217 237.822 120.25 237.822 120.283 237.82C121.084 237.79 121.714 237.396 121.998 237.173Z" fill="#B9B1D5"/>
<path d="M129.88 261.239L129.785 253.689C129.535 253.576 129.298 253.439 129.075 253.281L129.165 260.485C129.173 261.184 129.548 261.791 130.09 262.098C129.96 261.841 129.883 261.549 129.88 261.239Z" fill="#8577B6"/>
<path d="M7.5496 184.358L5.90571 190.225L0.657166 188.754L0.000976562 191.095L5.24952 192.566L3.6066 198.433L5.70132 199.02L7.34424 193.153L12.5928 194.624L13.249 192.283L8.00043 190.812L9.64433 184.945L7.5496 184.358Z" fill="#8577B6"/>
<path d="M348.52 177.478L346.876 183.344L341.627 181.873L340.971 184.214L346.221 185.685L344.577 191.552L346.672 192.139L348.315 186.272L353.564 187.743L354.22 185.402L348.971 183.931L350.615 178.064L348.52 177.478Z" fill="#8577B6"/>
<path d="M396.872 186.657C393.287 183.8 388.065 184.392 385.208 187.977C382.352 191.562 382.944 196.784 386.529 199.641C390.114 202.497 395.336 201.905 398.192 198.32C401.049 194.735 400.457 189.513 396.872 186.657ZM388.391 197.303C386.096 195.476 385.718 192.133 387.546 189.839C389.373 187.545 392.716 187.166 395.01 188.994C397.304 190.822 397.683 194.164 395.855 196.458C394.027 198.754 390.685 199.132 388.391 197.303Z" fill="#8577B6"/>
<path d="M42.3824 227.11C38.7973 224.253 33.5752 224.845 30.7187 228.43C27.8621 232.015 28.4538 237.237 32.0389 240.094C35.624 242.95 40.8461 242.359 43.7026 238.774C46.5592 235.188 45.9675 229.966 42.3824 227.11ZM33.9009 237.756C31.6066 235.929 31.2282 232.586 33.0559 230.292C34.8837 227.998 38.2262 227.619 40.5204 229.447C42.8147 231.275 43.1931 234.617 41.3654 236.912C39.5376 239.206 36.1951 239.584 33.9009 237.756Z" fill="#8577B6"/>
<path d="M52.3942 191.551C52.7599 189.66 51.5235 187.83 49.6326 187.464C47.7417 187.099 45.9123 188.335 45.5465 190.226C45.1808 192.117 46.4172 193.946 48.3081 194.312C50.199 194.678 52.0284 193.441 52.3942 191.551Z" fill="#6755A4"/>
<path d="M341.516 24.8779L336.951 22.1994L339.878 17.2119L338.056 16.1431L335.129 21.1295L330.565 18.451L329.396 20.4411L333.961 23.1196L331.035 28.107L332.856 29.1759L335.783 24.1895L340.348 26.868L341.516 24.8779Z" fill="#998DC2"/>
<path d="M378.638 24.0641C382.537 21.1577 383.342 15.6422 380.436 11.7432C377.529 7.8442 372.014 7.03937 368.115 9.94577C364.216 12.8522 363.411 18.3677 366.317 22.2667C369.223 26.1657 374.739 26.9705 378.638 24.0641ZM370.009 12.4874C372.505 10.6274 376.035 11.1428 377.894 13.6374C379.754 16.1331 379.239 19.6634 376.744 21.5225C374.248 23.3825 370.718 22.8671 368.859 20.3724C366.999 17.8777 367.513 14.3474 370.009 12.4874Z" fill="#6755A4"/>
<path d="M374.003 224.54C376.018 224.201 377.377 222.293 377.038 220.278C376.7 218.263 374.792 216.904 372.777 217.243C370.762 217.582 369.403 219.489 369.741 221.504C370.08 223.519 371.988 224.878 374.003 224.54Z" fill="#998DC2"/>
</g>
<defs>
<clipPath id="clip0_3199_9021">
<rect width="400" height="336.593" fill="white"/>
</clipPath>
</defs>
</svg>
