<svg width="389" height="337" viewBox="0 0 389 337" fill="none" xmlns="http://www.w3.org/2000/svg">
<g clip-path="url(#clip0_3317_9717)">
<g opacity="0.1">
<path d="M22.0455 190.494C4.83143 160.209 -6.65971 124.075 4.28907 91.7726C14.6793 61.1151 44.8203 45.4396 74.4535 38.0648C105.439 30.3529 137.97 29.4734 169.288 22.9186C202.143 16.043 234.438 6.45332 265.666 -5.86541C279.829 -11.4522 293.834 -17.618 308.59 -21.3692C335.193 -28.1314 367.835 -23.8627 385.214 -0.488253C403.359 23.9191 404.182 59.2471 391.079 86.1264C376.109 116.835 349.258 140.911 339.398 174.262C333.422 194.479 334.83 216.444 327.775 236.279C320.866 255.705 310.416 274.044 296.085 288.96C279.729 305.985 258.156 318.356 234.818 321.922C202.596 326.844 170.144 315.011 141.23 299.961C102.57 279.839 66.532 252.951 40.1465 217.937C33.8899 209.636 27.6635 200.377 22.0455 190.494Z" fill="#E1E5E2"/>
</g>
<path d="M392.086 336.526H7.91449C5.66726 336.526 3.8457 334.704 3.8457 332.457C3.8457 330.21 5.66726 328.388 7.91449 328.388H392.086C394.333 328.388 396.154 330.21 396.154 332.457C396.154 334.704 394.333 336.526 392.086 336.526Z" fill="#E1E5E2"/>
<path opacity="0.39" d="M380.42 163.205C387.987 155.638 387.987 143.37 380.42 135.804C372.854 128.237 360.586 128.237 353.019 135.804C345.452 143.37 345.452 155.638 353.019 163.205C360.586 170.772 372.854 170.772 380.42 163.205Z" fill="white"/>
<path d="M261.979 -14.2544C280.625 2.38486 268.727 18.0539 286.68 43.936C317.809 88.8147 374.606 72.0156 392.301 111.218C400.102 128.502 398.895 153.555 387.452 169.408C372.062 190.728 342.57 189.294 323.2 220.324C320.169 225.181 318.241 229.461 317.139 232.144" stroke="#6755A4" stroke-width="1.488" stroke-miterlimit="10"/>
<path d="M109.366 240.096C99.6637 235.982 86.1889 228.373 79.5293 214.263C68.6021 191.109 85.438 172.624 76.179 156.685C64.0958 135.881 17.7142 155.652 6.4132 137.131C-3.50919 120.871 16.5398 79.8972 44.8279 72.5764C76.6641 64.3373 99.8106 103.675 122.566 95.4583C136.758 90.3339 149.407 67.2144 148.025 -5.16162" stroke="#6755A4" stroke-width="1.488" stroke-miterlimit="10"/>
<path d="M155.701 187.257H40.8225C40.1288 187.257 39.5605 186.689 39.5605 185.995V103.504C39.5605 102.81 40.1288 102.242 40.8225 102.242H155.701C156.395 102.242 156.963 102.81 156.963 103.504V185.995C156.963 186.689 156.395 187.257 155.701 187.257Z" fill="#E9E9F2"/>
<path d="M156.963 109.137V103.503C156.963 102.809 156.395 102.241 155.701 102.241H40.8225C40.1288 102.241 39.5605 102.809 39.5605 103.503V109.137H156.963Z" fill="#D9DAE8"/>
<path d="M144.594 105.502C144.594 106.164 144.057 106.701 143.395 106.701C142.732 106.701 142.195 106.164 142.195 105.502C142.195 104.84 142.732 104.303 143.395 104.303C144.056 104.303 144.594 104.84 144.594 105.502Z" fill="white"/>
<path d="M148.717 105.502C148.717 106.164 148.18 106.701 147.518 106.701C146.855 106.701 146.318 106.164 146.318 105.502C146.318 104.84 146.855 104.303 147.518 104.303C148.18 104.303 148.717 104.84 148.717 105.502Z" fill="white"/>
<path d="M152.841 105.502C152.841 106.164 152.304 106.701 151.642 106.701C150.979 106.701 150.442 106.164 150.442 105.502C150.442 104.84 150.979 104.303 151.642 104.303C152.303 104.303 152.841 104.84 152.841 105.502Z" fill="white"/>
<path d="M80.806 110.787H54.092C53.3984 110.787 52.8301 110.219 52.8301 109.526V102.266C52.8301 101.573 53.3984 101.004 54.092 101.004H80.806C81.4996 101.004 82.0679 101.573 82.0679 102.266V109.526C82.0679 110.219 81.5007 110.787 80.806 110.787Z" fill="#E9E9F2"/>
<path d="M80.9248 128.016V130.149H72.0342V118.666H80.712V120.799H74.6758V123.292H80.0065V125.359H74.6758V128.017H80.9248V128.016Z" fill="white"/>
<path d="M90.3566 130.148L88.1418 126.95H88.01H85.6969V130.148H83.0391V118.665H88.0089C89.0256 118.665 89.9093 118.835 90.6581 119.174C91.4068 119.513 91.9837 119.994 92.3889 120.617C92.7929 121.241 92.996 121.979 92.996 122.832C92.996 123.686 92.7908 124.42 92.3813 125.038C91.9718 125.656 91.3895 126.13 90.6343 126.457L93.21 130.148H90.3566ZM89.6835 121.348C89.2676 121.003 88.6615 120.831 87.8631 120.831H85.6979V124.833H87.8631C88.6615 124.833 89.2687 124.658 89.6835 124.308C90.0984 123.958 90.3069 123.466 90.3069 122.832C90.3069 122.187 90.0995 121.692 89.6835 121.348Z" fill="white"/>
<path d="M102.413 130.147L100.198 126.949H100.067H97.7545V130.147H95.0967V118.665H100.067C101.083 118.665 101.967 118.834 102.716 119.173C103.464 119.513 104.041 119.993 104.446 120.617C104.851 121.24 105.054 121.978 105.054 122.832C105.054 123.685 104.848 124.42 104.439 125.038C104.029 125.656 103.447 126.129 102.692 126.456L105.268 130.147H102.413ZM101.74 121.347C101.324 121.003 100.718 120.831 99.9196 120.831H97.7545V124.833H99.9196C100.718 124.833 101.325 124.658 101.74 124.307C102.155 123.957 102.363 123.466 102.363 122.832C102.363 122.187 102.156 121.692 101.74 121.347Z" fill="white"/>
<path d="M109.49 129.574C108.533 129.059 107.784 128.352 107.243 127.45C106.702 126.547 106.432 125.533 106.432 124.407C106.432 123.281 106.702 122.267 107.243 121.365C107.784 120.463 108.533 119.755 109.49 119.241C110.447 118.726 111.521 118.469 112.713 118.469C113.905 118.469 114.977 118.726 115.928 119.241C116.88 119.755 117.629 120.463 118.176 121.365C118.722 122.267 118.996 123.281 118.996 124.407C118.996 125.534 118.722 126.547 118.176 127.45C117.629 128.352 116.879 129.059 115.928 129.574C114.977 130.088 113.905 130.345 112.713 130.345C111.521 130.344 110.446 130.088 109.49 129.574ZM114.55 127.614C115.096 127.302 115.525 126.867 115.838 126.31C116.149 125.752 116.305 125.118 116.305 124.407C116.305 123.696 116.15 123.062 115.838 122.505C115.525 121.947 115.096 121.512 114.55 121.2C114.003 120.888 113.391 120.733 112.713 120.733C112.035 120.733 111.423 120.888 110.876 121.2C110.33 121.513 109.901 121.947 109.589 122.505C109.277 123.062 109.121 123.696 109.121 124.407C109.121 125.118 109.276 125.752 109.589 126.31C109.901 126.867 110.33 127.303 110.876 127.614C111.423 127.925 112.036 128.082 112.713 128.082C113.392 128.08 114.003 127.925 114.55 127.614Z" fill="white"/>
<path d="M128.312 130.148L126.097 126.95H125.965H123.652V130.148H120.994V118.665H125.964C126.981 118.665 127.864 118.835 128.613 119.174C129.362 119.513 129.939 119.994 130.344 120.617C130.748 121.241 130.951 121.979 130.951 122.832C130.951 123.686 130.746 124.42 130.336 125.038C129.927 125.656 129.345 126.13 128.589 126.457L131.165 130.148H128.312ZM127.64 121.348C127.224 121.003 126.618 120.831 125.819 120.831H123.654V124.833H125.819C126.618 124.833 127.225 124.658 127.64 124.308C128.055 123.958 128.263 123.466 128.263 122.832C128.263 122.187 128.055 121.692 127.64 121.348Z" fill="white"/>
<path d="M118.928 139.143C109.091 139.143 101.089 147.146 101.089 156.983C101.089 166.82 109.091 174.822 118.928 174.822C128.764 174.822 136.767 166.82 136.767 156.983C136.768 147.146 128.765 139.143 118.928 139.143ZM125.96 144.379L118.171 154.932L110.855 145.019C113.161 143.458 115.94 142.545 118.928 142.545C121.48 142.544 123.878 143.212 125.96 144.379ZM104.491 156.983C104.491 153.081 106.049 149.539 108.573 146.938L116.323 157.437L108.961 167.412C106.209 164.781 104.491 161.08 104.491 156.983ZM111.309 169.239L118.171 159.943L125.479 169.844C123.512 170.85 121.287 171.421 118.93 171.421C116.133 171.42 113.523 170.619 111.309 169.239ZM127.979 168.22L120.02 157.436L128.393 146.092C131.436 148.741 133.366 152.639 133.366 156.982C133.367 161.519 131.261 165.571 127.979 168.22Z" fill="white"/>
<path d="M89.3673 141.952H56.3557C55.662 141.952 55.0938 141.384 55.0938 140.69V140.403C55.0938 139.709 55.662 139.141 56.3557 139.141H89.3673C90.0609 139.141 90.6292 139.709 90.6292 140.403V140.69C90.6292 141.385 90.0609 141.952 89.3673 141.952Z" fill="white"/>
<path d="M89.3673 147.462H56.3557C55.662 147.462 55.0938 146.894 55.0938 146.2V145.913C55.0938 145.219 55.662 144.651 56.3557 144.651H89.3673C90.0609 144.651 90.6292 145.219 90.6292 145.913V146.2C90.6292 146.895 90.0609 147.462 89.3673 147.462Z" fill="white"/>
<path d="M89.3673 153.197H56.3557C55.662 153.197 55.0938 152.629 55.0938 151.936V151.648C55.0938 150.955 55.662 150.386 56.3557 150.386H89.3673C90.0609 150.386 90.6292 150.955 90.6292 151.648V151.936C90.6292 152.629 90.0609 153.197 89.3673 153.197Z" fill="white"/>
<path d="M76.1788 159.495H56.4994C55.7258 159.495 55.0938 158.863 55.0938 158.09C55.0938 157.316 55.7258 156.684 56.4994 156.684H76.1788C76.9524 156.684 77.5844 157.317 77.5844 158.09C77.5844 158.862 76.9513 159.495 76.1788 159.495Z" fill="white"/>
<path d="M75.3735 175.127H57.7554C56.6631 175.127 55.7686 174.233 55.7686 173.14V171.265C55.7686 170.173 56.662 169.278 57.7554 169.278H75.3746C76.4669 169.278 77.3614 170.172 77.3614 171.265V173.14C77.3604 174.232 76.4658 175.127 75.3735 175.127Z" fill="#998DC2"/>
<path d="M374.321 187.864H172.104C170.882 187.864 169.883 186.865 169.883 185.643V40.4357C169.883 39.2137 170.882 38.2144 172.104 38.2144H374.321C375.542 38.2144 376.542 39.2137 376.542 40.4357V185.643C376.542 186.865 375.542 187.864 374.321 187.864Z" fill="#6755A4"/>
<path d="M376.542 50.3528V40.4347C376.542 39.2127 375.542 38.2134 374.321 38.2134H172.104C170.882 38.2134 169.883 39.2127 169.883 40.4347V50.3528H376.542Z" fill="#273339"/>
<path d="M354.768 43.9549C354.768 45.1206 353.823 46.066 352.657 46.066C351.491 46.066 350.546 45.1206 350.546 43.9549C350.546 42.7891 351.491 41.8438 352.657 41.8438C353.823 41.8438 354.768 42.788 354.768 43.9549Z" fill="white"/>
<path d="M362.026 43.9549C362.026 45.1206 361.081 46.066 359.915 46.066C358.749 46.066 357.804 45.1206 357.804 43.9549C357.804 42.7891 358.749 41.8438 359.915 41.8438C361.081 41.8438 362.026 42.788 362.026 43.9549Z" fill="white"/>
<path d="M369.259 44.3512C369.487 43.2076 368.745 42.096 367.601 41.8683C366.458 41.6406 365.346 42.3831 365.118 43.5266C364.891 44.6701 365.633 45.7818 366.777 46.0095C367.92 46.2372 369.032 45.4947 369.259 44.3512Z" fill="white"/>
<path d="M234.196 141.787H185.939C184.979 141.787 184.193 141.002 184.193 140.041V139.839C184.193 138.879 184.979 138.093 185.939 138.093H234.196C235.157 138.093 235.942 138.879 235.942 139.839V140.041C235.941 141.002 235.156 141.787 234.196 141.787Z" fill="white"/>
<path d="M234.196 149.026H185.939C184.979 149.026 184.193 148.24 184.193 147.28V147.078C184.193 146.117 184.979 145.332 185.939 145.332H234.196C235.157 145.332 235.942 146.117 235.942 147.078V147.28C235.941 148.24 235.156 149.026 234.196 149.026Z" fill="white"/>
<path d="M234.196 156.561H185.939C184.979 156.561 184.193 155.775 184.193 154.815V154.613C184.193 153.652 184.979 152.867 185.939 152.867H234.196C235.157 152.867 235.942 153.652 235.942 154.613V154.815C235.941 155.775 235.156 156.561 234.196 156.561Z" fill="white"/>
<path d="M215.099 164.833H186.041C185.025 164.833 184.194 164.002 184.194 162.987C184.194 161.971 185.025 161.14 186.041 161.14H215.099C216.115 161.14 216.946 161.971 216.946 162.987C216.946 164.002 216.115 164.833 215.099 164.833Z" fill="white"/>
<path d="M212.743 133.439H187.087C185.495 133.439 184.194 132.137 184.194 130.547V127.817C184.194 126.225 185.496 124.924 187.087 124.924H212.743C214.333 124.924 215.635 126.226 215.635 127.817V130.547C215.635 132.138 214.334 133.439 212.743 133.439Z" fill="#998DC2"/>
<path d="M298.633 141.787H250.376C249.415 141.787 248.63 141.002 248.63 140.041V139.839C248.63 138.879 249.415 138.093 250.376 138.093H298.633C299.593 138.093 300.379 138.879 300.379 139.839V140.041C300.378 141.002 299.592 141.787 298.633 141.787Z" fill="white"/>
<path d="M298.633 149.026H250.376C249.415 149.026 248.63 148.24 248.63 147.28V147.078C248.63 146.117 249.415 145.332 250.376 145.332H298.633C299.593 145.332 300.379 146.117 300.379 147.078V147.28C300.378 148.24 299.592 149.026 298.633 149.026Z" fill="white"/>
<path d="M298.633 156.561H250.376C249.415 156.561 248.63 155.775 248.63 154.815V154.613C248.63 153.652 249.415 152.867 250.376 152.867H298.633C299.593 152.867 300.379 153.652 300.379 154.613V154.815C300.378 155.775 299.592 156.561 298.633 156.561Z" fill="white"/>
<path d="M279.536 164.833H250.477C249.462 164.833 248.631 164.002 248.631 162.987C248.631 161.971 249.462 161.14 250.477 161.14H279.536C280.551 161.14 281.382 161.971 281.382 162.987C281.382 164.002 280.551 164.833 279.536 164.833Z" fill="white"/>
<path d="M277.179 133.439H251.523C249.932 133.439 248.631 132.137 248.631 130.547V127.817C248.631 126.225 249.933 124.924 251.523 124.924H277.179C278.771 124.924 280.072 126.226 280.072 127.817V130.547C280.072 132.138 278.771 133.439 277.179 133.439Z" fill="#998DC2"/>
<path d="M363.279 141.787H315.022C314.062 141.787 313.276 141.002 313.276 140.041V139.839C313.276 138.879 314.062 138.093 315.022 138.093H363.279C364.24 138.093 365.025 138.879 365.025 139.839V140.041C365.025 141.002 364.24 141.787 363.279 141.787Z" fill="white"/>
<path d="M363.279 149.026H315.022C314.062 149.026 313.276 148.24 313.276 147.28V147.078C313.276 146.117 314.062 145.332 315.022 145.332H363.279C364.24 145.332 365.025 146.117 365.025 147.078V147.28C365.025 148.24 364.24 149.026 363.279 149.026Z" fill="white"/>
<path d="M363.279 156.561H315.022C314.062 156.561 313.276 155.775 313.276 154.815V154.613C313.276 153.652 314.062 152.867 315.022 152.867H363.279C364.24 152.867 365.025 153.652 365.025 154.613V154.815C365.025 155.775 364.24 156.561 363.279 156.561Z" fill="white"/>
<path d="M344.182 164.833H315.124C314.108 164.833 313.277 164.002 313.277 162.987C313.277 161.971 314.108 161.14 315.124 161.14H344.182C345.198 161.14 346.029 161.971 346.029 162.987C346.029 164.002 345.198 164.833 344.182 164.833Z" fill="white"/>
<path d="M341.826 133.439H316.17C314.578 133.439 313.277 132.137 313.277 130.547V127.817C313.277 126.225 314.579 124.924 316.17 124.924H341.826C343.417 124.924 344.718 126.226 344.718 127.817V130.547C344.719 132.138 343.417 133.439 341.826 133.439Z" fill="#998DC2"/>
<path d="M222.621 96.2273L238.553 73.271H245.182V96.2273H249.634V101.917H245.182V108.745H238.898V101.917H222.621V96.2273ZM238.899 96.2273V82.8693L229.746 96.2273H238.899Z" fill="white"/>
<path d="M279.816 83.1415C280.475 85.4665 280.805 88.0973 280.805 91.0327C280.805 93.9693 280.476 96.5914 279.816 98.8991C279.155 101.208 278.24 103.146 277.069 104.713C275.898 106.279 274.455 107.475 272.74 108.3C271.024 109.124 269.144 109.537 267.099 109.537C265.022 109.537 263.133 109.124 261.435 108.3C259.735 107.475 258.293 106.279 257.106 104.713C255.918 103.146 254.994 101.208 254.335 98.8991C253.675 96.5903 253.346 93.9682 253.346 91.0327C253.346 88.0973 253.675 85.4665 254.335 83.1415C254.994 80.8165 255.918 78.8707 257.106 77.303C258.293 75.7364 259.728 74.5404 261.41 73.7161C263.092 72.8917 264.988 72.479 267.099 72.479C269.144 72.479 271.024 72.8917 272.74 73.7161C274.455 74.5404 275.898 75.7364 277.069 77.303C278.24 78.8707 279.155 80.8165 279.816 83.1415ZM272.345 100.532C273.598 98.4216 274.224 95.2549 274.224 91.0327C274.224 86.8105 273.589 83.6449 272.32 81.5338C271.049 79.4238 269.31 78.3672 267.1 78.3672C264.857 78.3672 263.101 79.4227 261.831 81.5338C260.561 83.6449 259.926 86.8116 259.926 91.0327C259.926 95.2549 260.562 98.4216 261.831 100.532C263.101 102.643 264.857 103.698 267.1 103.698C269.343 103.698 271.091 102.644 272.345 100.532Z" fill="white"/>
<path d="M285.456 96.2273L301.388 73.271H308.017V96.2273H312.469V101.917H308.017V108.745H301.733V101.917H285.456V96.2273ZM301.733 96.2273V82.8693L292.58 96.2273H301.733Z" fill="white"/>
<path d="M257.913 324.687C257.913 327.672 255.675 329.91 252.689 329.91H184.775L178.059 320.208H252.689C255.674 319.463 257.913 321.701 257.913 324.687Z" fill="#F5F6F6"/>
<path d="M166.862 323.94C166.862 324.686 166.862 324.686 166.862 323.94C166.862 326.925 169.101 329.164 172.086 329.164H203.431C206.416 329.164 208.654 326.925 208.654 323.94C208.654 321.701 205.669 319.462 203.431 319.462H178.056L188.505 279.161C189.251 276.175 187.758 273.937 184.773 273.19C181.788 272.444 179.549 273.937 178.803 276.922L166.862 322.447C166.862 322.448 166.862 323.94 166.862 323.94Z" fill="#E1E5E2"/>
<path d="M237.763 282.894L228.061 319.463H178.058L187.76 282.894H237.763Z" fill="#C2C6C3"/>
<path d="M125.069 285.132H115.367C110.144 285.132 105.665 281.4 105.665 276.177L95.9633 144.826C95.2167 138.856 99.695 134.377 105.665 134.377H115.367C109.397 134.377 104.919 139.601 105.665 144.826L115.367 276.177C115.367 281.4 119.846 285.132 125.069 285.132Z" fill="#6755A4"/>
<path d="M311.647 285.132H125.069C119.846 285.132 115.367 281.4 115.367 276.177C115.367 275.43 104.919 135.871 105.665 144.826C104.919 138.856 109.397 134.377 115.367 134.377H302.692C307.915 134.377 312.394 138.109 312.394 143.333C312.394 142.586 313.14 151.542 322.096 274.684C322.096 279.908 317.617 285.132 311.647 285.132Z" fill="#F5F6F6"/>
<path d="M311.647 278.415C313.14 278.415 314.632 276.922 314.632 275.43L304.93 144.079C304.93 142.586 303.437 141.094 301.945 141.094H114.621C113.128 141.094 111.636 142.587 111.636 144.079L121.338 275.43C121.338 276.923 122.831 278.415 124.323 278.415C124.324 278.415 311.647 278.415 311.647 278.415Z" fill="white"/>
<path d="M293.736 150.05C292.243 150.05 290.751 148.557 290.004 147.065C290.004 145.572 290.751 144.08 292.989 144.08C294.482 144.08 295.974 145.573 296.721 147.065C295.974 148.557 295.228 150.05 293.736 150.05ZM197.461 147.064C197.461 147.811 197.461 148.557 196.715 149.303C195.968 150.049 195.968 150.049 194.476 150.049H123.577C122.084 150.049 120.592 148.556 120.592 147.064C120.592 145.571 121.338 144.079 122.83 144.079H193.73C195.969 144.079 197.461 145.572 197.461 147.064ZM282.541 147.064C282.541 148.557 281.794 150.049 279.555 150.049C278.062 150.049 276.57 148.556 275.824 147.064C275.824 145.571 276.57 144.079 278.809 144.079C280.302 144.079 281.794 145.572 282.541 147.064ZM268.36 147.064C268.36 148.557 267.614 150.049 265.375 150.049C263.882 150.049 262.39 148.556 261.643 147.064C261.643 145.571 262.39 144.079 264.629 144.079C266.868 144.079 268.36 145.572 268.36 147.064Z" fill="white"/>
<path d="M179.983 245.058H178.521C178.298 244.259 177.966 243.502 177.535 242.809L178.663 241.681C179.093 241.251 179.093 240.555 178.663 240.125L177.076 238.537C176.646 238.107 175.949 238.107 175.519 238.537L174.32 239.737C173.657 239.364 172.948 239.071 172.198 238.881V237.084C172.198 236.476 171.705 235.983 171.097 235.983H168.853C168.245 235.983 167.752 236.476 167.752 237.084V238.902C167.024 239.09 166.335 239.365 165.692 239.719L164.376 238.404C163.946 237.974 163.249 237.974 162.819 238.404L161.232 239.991C160.802 240.421 160.802 241.117 161.232 241.547L162.45 242.766C162.043 243.414 161.723 244.121 161.493 244.869H159.779C159.17 244.869 158.678 245.361 158.678 245.97V248.214C158.678 248.822 159.17 249.314 159.779 249.314H161.28C161.449 250.144 161.734 250.934 162.124 251.665L161.099 252.691C160.669 253.121 160.669 253.818 161.099 254.248L162.686 255.835C163.116 256.265 163.813 256.265 164.243 255.835L165.134 254.943C165.878 255.427 166.694 255.801 167.564 256.042V257.288C167.564 257.896 168.057 258.389 168.665 258.389H170.909C171.517 258.389 172.01 257.896 172.01 257.288V256.125C172.91 255.914 173.757 255.571 174.528 255.11L175.386 255.968C175.816 256.398 176.513 256.398 176.943 255.968L178.53 254.38C178.96 253.95 178.96 253.254 178.53 252.824L177.65 251.943C178.086 251.192 178.414 250.373 178.617 249.502H179.983C180.592 249.502 181.084 249.01 181.084 248.402V246.158C181.084 245.551 180.59 245.058 179.983 245.058ZM171.081 253.04C167.094 253.794 163.669 250.369 164.423 246.382C164.845 244.156 166.64 242.359 168.867 241.939C172.854 241.184 176.279 244.609 175.524 248.596C175.104 250.823 173.307 252.619 171.081 253.04Z" fill="#E9E9F2"/>
<path d="M244.765 242.824C263.029 224.56 263.029 194.948 244.765 176.684C226.501 158.42 196.89 158.42 178.626 176.684C160.362 194.948 160.362 224.56 178.626 242.824C196.89 261.088 226.501 261.088 244.765 242.824Z" fill="#A83138"/>
<path d="M189.968 186.375L236.729 233.135" stroke="white" stroke-width="3.11148" stroke-miterlimit="10"/>
<path d="M236.729 186.375L189.968 233.135" stroke="white" stroke-width="3.11148" stroke-miterlimit="10"/>
<path d="M280.102 185.381H277.605C277.222 184.017 276.656 182.724 275.921 181.54L277.847 179.615C278.582 178.88 278.582 177.689 277.847 176.956L275.136 174.245C274.401 173.51 273.211 173.51 272.477 174.245L270.43 176.292C269.299 175.656 268.085 175.156 266.806 174.831V171.761C266.806 170.723 265.965 169.881 264.926 169.881H261.093C260.055 169.881 259.213 170.723 259.213 171.761V174.865C257.97 175.186 256.792 175.657 255.694 176.263L253.447 174.016C252.712 173.281 251.522 173.281 250.788 174.016L248.077 176.727C247.344 177.461 247.344 178.652 248.077 179.386L250.158 181.466C249.463 182.574 248.916 183.781 248.523 185.057H245.595C244.556 185.057 243.715 185.898 243.715 186.937V190.77C243.715 191.808 244.556 192.65 245.595 192.65H248.16C248.448 194.066 248.934 195.417 249.601 196.664L247.85 198.416C247.115 199.15 247.115 200.341 247.85 201.075L250.56 203.785C251.295 204.52 252.486 204.52 253.219 203.785L254.741 202.263C256.011 203.091 257.407 203.727 258.891 204.14V206.267C258.891 207.305 259.733 208.147 260.771 208.147H264.604C265.643 208.147 266.484 207.305 266.484 206.267V204.281C268.021 203.92 269.468 203.335 270.785 202.547L272.25 204.012C272.985 204.747 274.176 204.747 274.909 204.012L277.62 201.302C278.355 200.567 278.355 199.376 277.62 198.643L276.116 197.139C276.862 195.856 277.423 194.457 277.768 192.971H280.102C281.14 192.971 281.982 192.129 281.982 191.091V187.257C281.983 186.223 281.141 185.381 280.102 185.381ZM264.897 199.015C258.087 200.303 252.238 194.453 253.526 187.644C254.246 183.84 257.313 180.773 261.117 180.053C267.926 178.765 273.776 184.616 272.488 191.425C271.769 195.229 268.7 198.296 264.897 199.015Z" fill="#E9E9F2"/>
</g>
<defs>
<clipPath id="clip0_3317_9717">
<rect width="400" height="363.526" fill="white" transform="translate(0 -27)"/>
</clipPath>
</defs>
</svg>
