<svg width="20" height="21" viewBox="0 0 20 21" fill="none" xmlns="http://www.w3.org/2000/svg">
<path d="M2.5 8.54036H17.5M7.5 4.3737H5.16667C4.23325 4.3737 3.76654 4.3737 3.41002 4.55535C3.09641 4.71514 2.84144 4.97011 2.68166 5.28371C2.5 5.64023 2.5 6.10694 2.5 7.04036V15.0404C2.5 15.9738 2.5 16.4405 2.68166 16.797C2.84144 17.1106 3.09641 17.3656 3.41002 17.5254C3.76654 17.707 4.23325 17.707 5.16667 17.707H14.8333C15.7668 17.707 16.2335 17.707 16.59 17.5254C16.9036 17.3656 17.1586 17.1106 17.3183 16.797C17.5 16.4405 17.5 15.9738 17.5 15.0404V7.04036C17.5 6.10694 17.5 5.64023 17.3183 5.28371C17.1586 4.97011 16.9036 4.71514 16.59 4.55535C16.2335 4.3737 15.7668 4.3737 14.8333 4.3737H12.5M7.5 4.3737H12.5M7.5 4.3737V3.95703C7.5 3.26668 6.94036 2.70703 6.25 2.70703C5.55964 2.70703 5 3.26668 5 3.95703V4.3737M12.5 4.3737V3.95703C12.5 3.26668 13.0596 2.70703 13.75 2.70703C14.4404 2.70703 15 3.26668 15 3.95703V4.3737" stroke="#909090" stroke-width="1.66667" stroke-linecap="round"/>
</svg>
