<svg width="120" height="120" viewBox="0 0 120 120" fill="none" xmlns="http://www.w3.org/2000/svg">
<path d="M90.2 67.7499C88.1 69.7999 86.9 72.75 87.2 75.9C87.65 81.3 92.6 85.2499 98 85.2499H107.5V91.2C107.5 101.55 99.05 110 88.7 110H38.15C39.7 108.7 41.05 107.1 42.1 105.3C43.95 102.3 45 98.75 45 95C45 83.95 36.05 75 25 75C20.3 75 15.95 76.65 12.5 79.4V57.55C12.5 47.2 20.95 38.75 31.3 38.75H88.7C99.05 38.75 107.5 47.2 107.5 57.55V64.7501H97.4C94.6 64.7501 92.05 65.8499 90.2 67.7499Z" stroke="#998DC2" stroke-width="10" stroke-linecap="round" stroke-linejoin="round"/>
<path d="M12.5 62.0515V39.2017C12.5 33.2517 16.15 27.9515 21.7 25.8515L61.4 10.8515C67.6 8.50152 74.25 13.1017 74.25 19.7517V38.7516" stroke="#998DC2" stroke-width="10" stroke-linecap="round" stroke-linejoin="round"/>
<path d="M112.794 69.8508V80.1511C112.794 82.9011 110.594 85.1509 107.794 85.2509H97.994C92.594 85.2509 87.6441 81.3009 87.1941 75.9009C86.8941 72.7509 88.094 69.8009 90.194 67.7509C92.044 65.8509 94.5941 64.751 97.3941 64.751H107.794C110.594 64.851 112.794 67.1008 112.794 69.8508Z" stroke="#998DC2" stroke-width="7.5" stroke-linecap="round" stroke-linejoin="round"/>
<path d="M35 60H70" stroke="#998DC2" stroke-width="10" stroke-linecap="round" stroke-linejoin="round"/>
<path d="M45 95C45 98.75 43.95 102.3 42.1 105.3C41.05 107.1 39.7 108.7 38.15 110C34.65 113.15 30.05 115 25 115C17.7 115 11.35 111.1 7.90001 105.3C6.05001 102.3 5 98.75 5 95C5 88.7 7.9 83.05 12.5 79.4C15.95 76.65 20.3 75 25 75C36.05 75 45 83.95 45 95Z" stroke="#998DC2" stroke-width="10" stroke-miterlimit="10" stroke-linecap="round" stroke-linejoin="round"/>
<path d="M32.4586 94.8975H17.5586" stroke="#998DC2" stroke-width="10" stroke-miterlimit="10" stroke-linecap="round" stroke-linejoin="round"/>
<path d="M25 87.5977V102.548" stroke="#998DC2" stroke-width="10" stroke-miterlimit="10" stroke-linecap="round" stroke-linejoin="round"/>
</svg>
