<svg width="18" height="16" viewBox="0 0 18 16" fill="none" xmlns="http://www.w3.org/2000/svg">
<path d="M1.42442 7.35182L2.1816 7.69986H2.1816L1.42442 7.35182ZM16.576 9.30475L15.8188 8.95672L16.576 9.30475ZM1.42442 9.30476L0.667244 9.65279H0.667244L1.42442 9.30476ZM16.576 7.35182L15.8188 7.69986L16.576 7.35182ZM13.973 3.12653C13.5866 2.87655 13.0707 2.98717 12.8207 3.3736C12.5707 3.76004 12.6813 4.27595 13.0678 4.52592L13.973 3.12653ZM4.96784 12.1533C4.58002 11.9055 4.06473 12.019 3.81691 12.4068C3.5691 12.7946 3.68259 13.3099 4.07041 13.5577L4.96784 12.1533ZM1.66728 11.3297C1.94373 11.6976 2.46613 11.7718 2.83409 11.4953C3.20204 11.2189 3.27622 10.6965 2.99977 10.3285L1.66728 11.3297ZM10.5011 3.47833C10.9521 3.56989 11.392 3.27847 11.4835 2.82743C11.5751 2.37639 11.2837 1.93653 10.8326 1.84497L10.5011 3.47833ZM16.2561 2.25088C16.5815 1.92544 16.5815 1.3978 16.2561 1.07237C15.9307 0.746929 15.403 0.746929 15.0776 1.07237L16.2561 2.25088ZM1.74426 14.4057C1.41882 14.7311 1.41882 15.2588 1.74426 15.5842C2.06969 15.9096 2.59733 15.9096 2.92277 15.5842L1.74426 14.4057ZM9.00019 1.66162C5.30123 1.66162 2.11573 3.85249 0.667243 7.00379L2.1816 7.69986C3.36828 5.11813 5.97609 3.32829 9.00019 3.32829V1.66162ZM9.00019 14.995C12.6991 14.995 15.8846 12.8041 17.3331 9.65279L15.8188 8.95672C14.6321 11.5384 12.0243 13.3283 9.00019 13.3283V14.995ZM0.667244 7.00379C0.281058 7.84396 0.281058 8.81262 0.667244 9.65279L2.1816 8.95672C1.9985 8.55837 1.9985 8.09821 2.1816 7.69986L0.667244 7.00379ZM15.8188 7.69986C16.0019 8.0982 16.0019 8.55837 15.8188 8.95672L17.3331 9.65279C17.7193 8.81262 17.7193 7.84396 17.3331 7.00379L15.8188 7.69986ZM17.3331 7.00379C16.602 5.41314 15.4296 4.0688 13.973 3.12653L13.0678 4.52592C14.2609 5.29775 15.2209 6.39909 15.8188 7.69986L17.3331 7.00379ZM4.07041 13.5577C5.4944 14.4676 7.18699 14.995 9.00019 14.995V13.3283C7.51438 13.3283 6.13182 12.8971 4.96784 12.1533L4.07041 13.5577ZM0.667244 9.65279C0.941385 10.2492 1.27752 10.8109 1.66728 11.3297L2.99977 10.3285C2.68061 9.90375 2.40566 9.44419 2.1816 8.95672L0.667244 9.65279ZM10.8326 1.84497C10.2399 1.72465 9.62695 1.66162 9.00019 1.66162V3.32829C9.51497 3.32829 10.0168 3.38003 10.5011 3.47833L10.8326 1.84497ZM6.64316 10.6853C7.94491 11.9871 10.0555 11.9871 11.3572 10.6853L10.1787 9.5068C9.52782 10.1577 8.47255 10.1577 7.82168 9.5068L6.64316 10.6853ZM11.3572 10.6853C12.659 9.38356 12.659 7.27301 11.3572 5.97127L10.1787 7.14978C10.8296 7.80065 10.8296 8.85593 10.1787 9.5068L11.3572 10.6853ZM15.0776 1.07237L1.74426 14.4057L2.92277 15.5842L16.2561 2.25088L15.0776 1.07237Z" fill="#747474"/>
</svg>
