<svg width="14" height="17" viewBox="0 0 14 17" fill="none" xmlns="http://www.w3.org/2000/svg">
<path d="M3.6665 5.82812V4.16146C3.6665 2.32051 5.15889 0.828125 6.99984 0.828125C8.84079 0.828125 10.3332 2.32051 10.3332 4.16146V5.82812M3.83317 15.8281H10.1665C11.0999 15.8281 11.5666 15.8281 11.9232 15.6465C12.2368 15.4867 12.4917 15.2317 12.6515 14.9181C12.8332 14.5616 12.8332 14.0949 12.8332 13.1615V8.49479C12.8332 7.56137 12.8332 7.09466 12.6515 6.73814C12.4917 6.42454 12.2368 6.16957 11.9232 6.00978C11.5666 5.82812 11.0999 5.82812 10.1665 5.82812H3.83317C2.89975 5.82812 2.43304 5.82812 2.07652 6.00978C1.76292 6.16957 1.50795 6.42454 1.34816 6.73814C1.1665 7.09466 1.1665 7.56137 1.1665 8.49479V13.1615C1.1665 14.0949 1.1665 14.5616 1.34816 14.9181C1.50795 15.2317 1.76292 15.4867 2.07652 15.6465C2.43304 15.8281 2.89975 15.8281 3.83317 15.8281Z" stroke="#747474" stroke-width="1.66667" stroke-linecap="round"/>
</svg>
