<svg width="101" height="25" viewBox="0 0 101 25" fill="none" xmlns="http://www.w3.org/2000/svg">
<path d="M31.3679 12.9761H27.5419C27.5459 13.4201 27.6359 13.8121 27.8099 14.1521C27.9839 14.4921 28.2159 14.7461 28.5059 14.9181C28.7939 15.0901 29.1139 15.1761 29.4619 15.1761C29.6959 15.1761 29.9099 15.1481 30.1039 15.0941C30.2979 15.0401 30.4839 14.9541 30.6659 14.8361C30.8479 14.7201 31.0139 14.5941 31.1679 14.4601C31.3199 14.3261 31.5199 14.1441 31.7619 13.9161C31.8619 13.8301 32.0059 13.7881 32.1919 13.7881C32.3919 13.7881 32.5539 13.8421 32.6799 13.9521C32.8039 14.0621 32.8659 14.2181 32.8659 14.4181C32.8659 14.5941 32.7959 14.8021 32.6579 15.0381C32.5199 15.2741 32.3099 15.5021 32.0319 15.7181C31.7519 15.9361 31.4019 16.1161 30.9779 16.2581C30.5559 16.4021 30.0699 16.4741 29.5199 16.4741C28.2639 16.4741 27.2859 16.1161 26.5899 15.4001C25.8919 14.6841 25.5439 13.7121 25.5439 12.4841C25.5439 11.9061 25.6299 11.3701 25.8019 10.8761C25.9739 10.3821 26.2239 9.95806 26.5539 9.60406C26.8839 9.25006 27.2899 8.98006 27.7719 8.79006C28.2539 8.60206 28.7899 8.50806 29.3759 8.50806C30.1399 8.50806 30.7959 8.67006 31.3419 8.99206C31.8879 9.31406 32.2979 9.73206 32.5699 10.2421C32.8419 10.7541 32.9779 11.2741 32.9779 11.8041C32.9779 12.2961 32.8359 12.6141 32.5559 12.7601C32.2739 12.9041 31.8779 12.9761 31.3679 12.9761ZM27.5419 11.8661H31.0879C31.0399 11.1981 30.8599 10.6981 30.5479 10.3641C30.2339 10.0321 29.8239 9.86606 29.3119 9.86606C28.8239 9.86606 28.4239 10.0341 28.1119 10.3721C27.7979 10.7081 27.6079 11.2061 27.5419 11.8661Z" fill="#6755A4"/>
<path d="M39.5721 15.3699C39.1001 15.7379 38.6421 16.0139 38.2001 16.1979C37.7581 16.3819 37.2621 16.4739 36.7141 16.4739C36.2121 16.4739 35.7721 16.3739 35.3921 16.1759C35.0121 15.9779 34.7201 15.7099 34.5141 15.3699C34.3081 15.0319 34.2061 14.6639 34.2061 14.2659C34.2061 13.7319 34.3761 13.2739 34.7141 12.8979C35.0541 12.5199 35.5181 12.2679 36.1121 12.1379C36.2361 12.1099 36.5441 12.0439 37.0361 11.9439C37.5281 11.8439 37.9501 11.7519 38.3001 11.6679C38.6501 11.5839 39.0321 11.4839 39.4421 11.3639C39.4181 10.8479 39.3141 10.4699 39.1301 10.2279C38.9461 9.98591 38.5641 9.86591 37.9881 9.86591C37.4921 9.86591 37.1181 9.93591 36.8661 10.0739C36.6161 10.2119 36.4001 10.4199 36.2221 10.6979C36.0421 10.9739 35.9161 11.1579 35.8421 11.2459C35.7681 11.3339 35.6101 11.3779 35.3661 11.3779C35.1461 11.3779 34.9561 11.3079 34.7961 11.1659C34.6361 11.0259 34.5561 10.8439 34.5561 10.6259C34.5561 10.2819 34.6781 9.94791 34.9221 9.62191C35.1661 9.29791 35.5461 9.02991 36.0621 8.81991C36.5781 8.60991 37.2201 8.50391 37.9901 8.50391C38.8501 8.50391 39.5261 8.60591 40.0181 8.80791C40.5101 9.01191 40.8581 9.33191 41.0601 9.77191C41.2641 10.2119 41.3641 10.7939 41.3641 11.5199C41.3641 11.9779 41.3621 12.3679 41.3601 12.6879C41.3581 13.0079 41.3541 13.3639 41.3501 13.7559C41.3501 14.1239 41.4101 14.5079 41.5321 14.9059C41.6541 15.3039 41.7141 15.5619 41.7141 15.6759C41.7141 15.8759 41.6201 16.0599 41.4321 16.2239C41.2441 16.3879 41.0301 16.4719 40.7901 16.4719C40.5901 16.4719 40.3921 16.3779 40.1961 16.1899C39.9981 16.0019 39.7901 15.7279 39.5721 15.3699ZM39.4421 12.5399C39.1561 12.6439 38.7381 12.7559 38.1921 12.8719C37.6461 12.9899 37.2661 13.0759 37.0561 13.1299C36.8461 13.1839 36.6461 13.2919 36.4541 13.4519C36.2621 13.6119 36.1681 13.8359 36.1681 14.1219C36.1681 14.4179 36.2801 14.6699 36.5041 14.8779C36.7281 15.0859 37.0221 15.1899 37.3861 15.1899C37.7721 15.1899 38.1301 15.1059 38.4581 14.9359C38.7861 14.7659 39.0261 14.5479 39.1781 14.2799C39.3541 13.9839 39.4441 13.4959 39.4441 12.8179V12.5399H39.4421Z" fill="#6755A4"/>
<path d="M49.6459 13.916C49.6459 14.456 49.5139 14.918 49.2519 15.302C48.9899 15.686 48.6019 15.978 48.0879 16.176C47.5739 16.374 46.9499 16.474 46.2139 16.474C45.5119 16.474 44.9099 16.366 44.4079 16.152C43.9059 15.936 43.5359 15.668 43.2979 15.346C43.0599 15.024 42.9399 14.7 42.9399 14.376C42.9399 14.16 43.0159 13.978 43.1699 13.824C43.3219 13.672 43.5159 13.594 43.7499 13.594C43.9559 13.594 44.1119 13.644 44.2219 13.744C44.3319 13.844 44.4359 13.986 44.5379 14.166C44.7379 14.514 44.9779 14.776 45.2579 14.948C45.5379 15.12 45.9179 15.206 46.3999 15.206C46.7919 15.206 47.1139 15.12 47.3639 14.944C47.6139 14.77 47.7399 14.57 47.7399 14.346C47.7399 14.002 47.6099 13.752 47.3499 13.594C47.0899 13.436 46.6599 13.286 46.0639 13.142C45.3899 12.974 44.8419 12.8 44.4199 12.616C43.9979 12.432 43.6599 12.19 43.4059 11.888C43.1519 11.588 43.0259 11.216 43.0259 10.778C43.0259 10.386 43.1439 10.016 43.3779 9.66797C43.6119 9.31997 43.9579 9.04197 44.4139 8.83397C44.8699 8.62597 45.4199 8.52197 46.0659 8.52197C46.5719 8.52197 47.0279 8.57397 47.4319 8.67997C47.8359 8.78597 48.1719 8.92597 48.4419 9.10197C48.7119 9.27797 48.9179 9.47397 49.0579 9.68997C49.1979 9.90597 49.2699 10.116 49.2699 10.32C49.2699 10.544 49.1939 10.728 49.0439 10.872C48.8939 11.016 48.6799 11.088 48.4019 11.088C48.2019 11.088 48.0299 11.03 47.8899 10.916C47.7499 10.802 47.5879 10.63 47.4059 10.4C47.2579 10.208 47.0839 10.056 46.8819 9.94197C46.6819 9.82797 46.4099 9.76997 46.0659 9.76997C45.7119 9.76997 45.4179 9.84597 45.1839 9.99597C44.9499 10.146 44.8319 10.334 44.8319 10.558C44.8319 10.764 44.9179 10.932 45.0899 11.064C45.2619 11.196 45.4939 11.304 45.7859 11.39C46.0779 11.476 46.4779 11.582 46.9899 11.706C47.5959 11.854 48.0919 12.03 48.4759 12.236C48.8599 12.442 49.1519 12.684 49.3499 12.964C49.5459 13.238 49.6459 13.556 49.6459 13.916Z" fill="#6755A4"/>
<path d="M53.106 16.7161L53.286 16.2781L50.878 10.2161C50.73 9.86807 50.656 9.61407 50.656 9.45607C50.656 9.28807 50.698 9.13407 50.784 8.99007C50.87 8.84607 50.988 8.73207 51.138 8.64607C51.288 8.56007 51.444 8.51807 51.608 8.51807C51.89 8.51807 52.102 8.60807 52.246 8.78607C52.39 8.96607 52.516 9.22207 52.626 9.55607L54.282 14.3721L55.852 9.89407C55.976 9.53207 56.088 9.24607 56.188 9.04207C56.288 8.83607 56.394 8.69807 56.506 8.62607C56.618 8.55407 56.778 8.51807 56.982 8.51807C57.13 8.51807 57.272 8.55807 57.408 8.63607C57.544 8.71407 57.65 8.82207 57.724 8.95407C57.798 9.08807 57.836 9.22807 57.836 9.37607C57.816 9.46607 57.786 9.59607 57.742 9.76207C57.7 9.93007 57.646 10.0981 57.584 10.2701L55.034 16.9481C54.814 17.5361 54.6 17.9961 54.39 18.3301C54.18 18.6641 53.902 18.9221 53.556 19.1001C53.21 19.2801 52.742 19.3681 52.156 19.3681C51.582 19.3681 51.152 19.3061 50.866 19.1821C50.58 19.0581 50.436 18.8301 50.436 18.5021C50.436 18.2781 50.504 18.1041 50.64 17.9821C50.776 17.8601 50.978 17.8001 51.246 17.8001C51.35 17.8001 51.454 17.8141 51.554 17.8421C51.678 17.8701 51.786 17.8841 51.876 17.8841C52.1 17.8841 52.278 17.8501 52.406 17.7841C52.534 17.7181 52.65 17.6021 52.754 17.4361C52.854 17.2801 52.972 17.0361 53.106 16.7161Z" fill="#6755A4"/>
<path d="M66.0761 14.0521C66.0761 14.2961 66.0041 14.5561 65.8581 14.8321C65.7121 15.1101 65.4901 15.3721 65.1921 15.6241C64.8941 15.8741 64.5181 16.0761 64.0641 16.2301C63.6101 16.3841 63.1001 16.4601 62.5301 16.4601C61.3221 16.4601 60.3781 16.1081 59.7001 15.4041C59.0221 14.7001 58.6821 13.7561 58.6821 12.5701C58.6821 11.7681 58.8381 11.0581 59.1481 10.4421C59.4581 9.8261 59.9081 9.3501 60.4961 9.0121C61.0841 8.6761 61.7861 8.5061 62.6021 8.5061C63.1081 8.5061 63.5721 8.5801 63.9961 8.7281C64.4201 8.8761 64.7761 9.0681 65.0701 9.3021C65.3641 9.5361 65.5881 9.7861 65.7441 10.0501C65.9001 10.3161 65.9761 10.5621 65.9761 10.7921C65.9761 11.0261 65.8881 11.2241 65.7141 11.3861C65.5401 11.5481 65.3281 11.6301 65.0801 11.6301C64.9181 11.6301 64.7821 11.5881 64.6761 11.5041C64.5681 11.4201 64.4481 11.2861 64.3141 11.1001C64.0761 10.7381 63.8261 10.4641 63.5661 10.2841C63.3061 10.1021 62.9741 10.0121 62.5741 10.0121C61.9961 10.0121 61.5301 10.2381 61.1761 10.6901C60.8221 11.1421 60.6461 11.7581 60.6461 12.5421C60.6461 12.9101 60.6921 13.2481 60.7821 13.5561C60.8721 13.8641 61.0041 14.1261 61.1761 14.3441C61.3481 14.5621 61.5561 14.7261 61.8001 14.8381C62.0441 14.9501 62.3121 15.0061 62.6021 15.0061C62.9941 15.0061 63.3301 14.9161 63.6081 14.7341C63.8881 14.5521 64.1341 14.2761 64.3501 13.9021C64.4701 13.6821 64.5981 13.5101 64.7381 13.3861C64.8761 13.2621 65.0461 13.2001 65.2461 13.2001C65.4841 13.2001 65.6841 13.2901 65.8401 13.4721C65.9961 13.6521 66.0761 13.8461 66.0761 14.0521Z" fill="#F05866"/>
<path d="M72.7239 15.3699C72.2519 15.7379 71.7939 16.0139 71.3519 16.1979C70.9099 16.3819 70.4139 16.4739 69.8659 16.4739C69.3639 16.4739 68.9239 16.3739 68.5439 16.1759C68.1639 15.9779 67.8719 15.7099 67.6659 15.3699C67.4599 15.0319 67.3579 14.6639 67.3579 14.2659C67.3579 13.7319 67.5279 13.2739 67.8659 12.8979C68.2059 12.5199 68.6699 12.2679 69.2639 12.1379C69.3879 12.1099 69.6959 12.0439 70.1879 11.9439C70.6799 11.8439 71.1019 11.7519 71.4519 11.6679C71.8019 11.5839 72.1839 11.4839 72.5939 11.3639C72.5699 10.8479 72.4659 10.4699 72.2819 10.2279C72.0979 9.98591 71.7159 9.86591 71.1399 9.86591C70.6439 9.86591 70.2699 9.93591 70.0179 10.0739C69.7679 10.2119 69.5519 10.4199 69.3739 10.6979C69.1939 10.9739 69.0679 11.1579 68.9939 11.2459C68.9199 11.3339 68.7619 11.3779 68.5179 11.3779C68.2979 11.3779 68.1079 11.3079 67.9479 11.1659C67.7879 11.0259 67.7079 10.8439 67.7079 10.6259C67.7079 10.2819 67.8299 9.94791 68.0739 9.62191C68.3179 9.29791 68.6979 9.02991 69.2139 8.81991C69.7299 8.60991 70.3719 8.50391 71.1419 8.50391C72.0019 8.50391 72.6779 8.60591 73.1699 8.80791C73.6619 9.01191 74.0099 9.33191 74.2119 9.77191C74.4159 10.2119 74.5159 10.7939 74.5159 11.5199C74.5159 11.9779 74.5139 12.3679 74.5119 12.6879C74.5099 13.0079 74.5059 13.3639 74.5019 13.7559C74.5019 14.1239 74.5619 14.5079 74.6839 14.9059C74.8059 15.3039 74.8659 15.5619 74.8659 15.6759C74.8659 15.8759 74.7719 16.0599 74.5839 16.2239C74.3959 16.3879 74.1819 16.4719 73.9419 16.4719C73.7419 16.4719 73.5439 16.3779 73.3479 16.1899C73.1519 16.0019 72.9439 15.7279 72.7239 15.3699ZM72.5959 12.5399C72.3099 12.6439 71.8919 12.7559 71.3459 12.8719C70.7999 12.9899 70.4199 13.0759 70.2099 13.1299C69.9999 13.1839 69.7999 13.2919 69.6079 13.4519C69.4159 13.6119 69.3219 13.8359 69.3219 14.1219C69.3219 14.4179 69.4339 14.6699 69.6579 14.8779C69.8819 15.0859 70.1759 15.1899 70.5399 15.1899C70.9259 15.1899 71.2839 15.1059 71.6119 14.9359C71.9399 14.7659 72.1799 14.5479 72.3319 14.2799C72.5079 13.9839 72.5979 13.4959 72.5979 12.8179V12.5399H72.5959Z" fill="#F05866"/>
<path d="M82.798 13.916C82.798 14.456 82.666 14.918 82.404 15.302C82.142 15.686 81.754 15.978 81.24 16.176C80.726 16.374 80.102 16.474 79.366 16.474C78.664 16.474 78.062 16.366 77.56 16.152C77.058 15.936 76.688 15.668 76.45 15.346C76.212 15.024 76.092 14.7 76.092 14.376C76.092 14.16 76.168 13.978 76.322 13.824C76.474 13.672 76.668 13.594 76.902 13.594C77.108 13.594 77.264 13.644 77.374 13.744C77.484 13.844 77.588 13.986 77.69 14.166C77.89 14.514 78.13 14.776 78.41 14.948C78.69 15.12 79.07 15.206 79.552 15.206C79.944 15.206 80.266 15.12 80.516 14.944C80.766 14.77 80.892 14.57 80.892 14.346C80.892 14.002 80.762 13.752 80.502 13.594C80.242 13.436 79.812 13.286 79.216 13.142C78.542 12.974 77.994 12.8 77.572 12.616C77.15 12.432 76.812 12.19 76.558 11.888C76.304 11.588 76.178 11.216 76.178 10.778C76.178 10.386 76.296 10.016 76.53 9.66797C76.764 9.31997 77.11 9.04197 77.566 8.83397C78.022 8.62597 78.572 8.52197 79.218 8.52197C79.724 8.52197 80.18 8.57397 80.584 8.67997C80.988 8.78597 81.324 8.92597 81.594 9.10197C81.864 9.27797 82.07 9.47397 82.21 9.68997C82.35 9.90597 82.422 10.116 82.422 10.32C82.422 10.544 82.346 10.728 82.196 10.872C82.046 11.016 81.832 11.088 81.554 11.088C81.354 11.088 81.182 11.03 81.042 10.916C80.902 10.802 80.74 10.63 80.558 10.4C80.41 10.208 80.236 10.056 80.034 9.94197C79.834 9.82797 79.562 9.76997 79.218 9.76997C78.864 9.76997 78.57 9.84597 78.336 9.99597C78.102 10.146 77.984 10.334 77.984 10.558C77.984 10.764 78.07 10.932 78.242 11.064C78.414 11.196 78.646 11.304 78.938 11.39C79.23 11.476 79.63 11.582 80.142 11.706C80.748 11.854 81.244 12.03 81.628 12.236C82.012 12.442 82.304 12.684 82.502 12.964C82.7 13.238 82.798 13.556 82.798 13.916Z" fill="#F05866"/>
<path d="M86.3679 6.80011V9.70211C86.6159 9.41611 86.8579 9.18811 87.0959 9.02211C87.3319 8.85411 87.5939 8.73011 87.8799 8.64611C88.1659 8.56211 88.4739 8.52011 88.8039 8.52011C89.2999 8.52011 89.7419 8.62611 90.1259 8.83611C90.5099 9.04611 90.8119 9.35211 91.0319 9.75411C91.1699 9.98811 91.2639 10.2501 91.3119 10.5381C91.3599 10.8261 91.3839 11.1601 91.3839 11.5381V15.2861C91.3839 15.6781 91.2939 15.9741 91.1159 16.1741C90.9359 16.3741 90.6999 16.4741 90.4039 16.4741C89.7579 16.4741 89.4359 16.0781 89.4359 15.2841V11.9801C89.4359 11.3541 89.3419 10.8721 89.1559 10.5361C88.9699 10.2001 88.6159 10.0301 88.0959 10.0301C87.7479 10.0301 87.4339 10.1301 87.1539 10.3281C86.8739 10.5261 86.6659 10.7981 86.5259 11.1421C86.4199 11.4341 86.3679 11.9521 86.3679 12.6961V15.2821C86.3679 15.6681 86.2799 15.9641 86.1059 16.1661C85.9319 16.3701 85.6899 16.4701 85.3779 16.4701C84.7339 16.4701 84.4099 16.0741 84.4099 15.2801V6.80011C84.4099 6.40411 84.4939 6.10611 84.6639 5.90811C84.8339 5.71011 85.0719 5.61011 85.3759 5.61011C85.6859 5.61011 85.9279 5.71011 86.1039 5.91011C86.2799 6.11211 86.3679 6.40811 86.3679 6.80011Z" fill="#F05866"/>
<path d="M22.144 14.51C22.142 14.554 22.138 14.6 22.13 14.646C22.024 15.308 21.502 16.064 21.062 16.556C20.82 16.828 20.55 17.074 20.26 17.294C19.686 17.728 19.03 18.052 18.336 18.24C16.684 18.684 14.814 18.318 13.422 17.33C11.912 16.258 10.928 14.496 10.928 12.504C10.928 11.712 11.086 10.954 11.368 10.262C11.564 10.594 11.79 10.91 12.046 11.208C12.4 11.62 12.782 12.004 13.192 12.344C13.188 12.396 13.188 12.45 13.188 12.504C13.188 13.292 13.438 14.022 13.862 14.62C14.524 15.552 15.614 16.16 16.844 16.16C17.804 16.16 18.812 15.778 19.454 15.048C19.89 14.554 20.156 13.838 20.79 13.55C21.524 13.214 22.176 13.782 22.144 14.51Z" fill="#6755A4"/>
<path d="M20.652 7.76393C20.566 7.69593 20.478 7.63193 20.388 7.56993C19.136 6.70793 17.532 6.36393 16.042 6.66593C15.58 6.75993 14.996 6.91993 14.616 7.25993C14.504 7.35993 14.41 7.47593 14.342 7.60993C14.27 7.75193 14.236 7.90993 14.248 8.07393C14.276 8.45393 14.542 8.76393 14.908 8.89793C15.352 9.05993 15.73 8.92593 16.18 8.85993C16.656 8.78993 17.142 8.75993 17.618 8.83393C18.268 8.93193 18.876 9.22993 19.372 9.65793C19.374 9.65993 19.374 9.66393 19.372 9.66593C19.342 9.70393 19.312 9.73993 19.28 9.77593C18.686 10.4719 17.84 10.9599 16.928 11.0779C15.588 11.2519 14.168 10.5999 13.452 9.45593C13.196 9.04593 13.03 8.58993 12.904 8.12593C12.784 7.68793 12.756 7.28593 12.432 6.94393C12.164 6.66193 11.772 6.53993 11.414 6.66793C11.258 6.72193 11.126 6.81593 11.026 6.93793C10.93 7.05393 10.862 7.18593 10.814 7.32993C10.654 7.81393 10.74 8.41393 10.838 8.87393C11.176 10.4679 12.248 11.8859 13.68 12.6659C15.112 13.4459 16.874 13.5779 18.412 13.0399C19.214 12.7599 19.952 12.2999 20.568 11.7119C21.172 11.1339 21.658 10.4339 21.97 9.65793C22.038 9.49393 22.02 9.30593 21.924 9.15593C21.58 8.62593 21.15 8.15393 20.652 7.76393Z" fill="#F05866"/>
<path d="M11.54 5.7661C11.54 5.8521 11.47 5.9221 11.384 5.9221H10.156C10.03 5.9221 9.92601 6.0241 9.92601 6.1521V7.3801C9.92601 7.4661 9.85601 7.5361 9.77001 7.5361C9.68401 7.5361 9.61401 7.4661 9.61401 7.3801V6.1381C9.61401 5.8481 9.85001 5.6121 10.14 5.6121H11.38C11.47 5.6101 11.54 5.6801 11.54 5.7661Z" fill="#6755A4"/>
<path d="M23.0979 7.53391C23.0119 7.53391 22.9419 7.46391 22.9419 7.37791V6.14991C22.9419 6.02391 22.8399 5.91991 22.7119 5.91991H21.4839C21.3979 5.91991 21.3279 5.84991 21.3279 5.76391C21.3279 5.67791 21.3979 5.60791 21.4839 5.60791H22.7259C23.0159 5.60791 23.2519 5.84391 23.2519 6.13391V7.37391C23.2539 7.46391 23.1839 7.53391 23.0979 7.53391Z" fill="#6755A4"/>
<path d="M21.3318 19.22C21.3318 19.134 21.4018 19.064 21.4878 19.064H22.7158C22.8418 19.064 22.9458 18.962 22.9458 18.834V17.606C22.9458 17.52 23.0158 17.45 23.1018 17.45C23.1878 17.45 23.2578 17.52 23.2578 17.606V18.848C23.2578 19.138 23.0218 19.374 22.7318 19.374H21.4918C21.4018 19.374 21.3318 19.306 21.3318 19.22Z" fill="#6755A4"/>
<path d="M9.77192 17.4519C9.85792 17.4519 9.92792 17.5219 9.92792 17.6079V18.8359C9.92792 18.9619 10.0299 19.0659 10.1579 19.0659H11.3859C11.4719 19.0659 11.5419 19.1359 11.5419 19.2219C11.5419 19.3079 11.4719 19.3779 11.3859 19.3779H10.1439C9.85392 19.3779 9.61792 19.1419 9.61792 18.8519V17.6119C9.61792 17.5219 9.68592 17.4519 9.77192 17.4519Z" fill="#6755A4"/>
</svg>
