<svg width="20" height="21" viewBox="0 0 20 21" fill="none" xmlns="http://www.w3.org/2000/svg">
<path d="M2.49984 4.49495L8.9766 9.53244C9.57845 10.0005 10.4212 10.0005 11.0231 9.53244L17.4998 4.49495M4.33317 16.995H15.6665C16.5999 16.995 17.0666 16.995 17.4232 16.8133C17.7368 16.6535 17.9917 16.3985 18.1515 16.0849C18.3332 15.7284 18.3332 15.2617 18.3332 14.3283V6.32829C18.3332 5.39487 18.3332 4.92816 18.1515 4.57164C17.9917 4.25803 17.7368 4.00307 17.4232 3.84328C17.0666 3.66162 16.5999 3.66162 15.6665 3.66162H4.33317C3.39975 3.66162 2.93304 3.66162 2.57652 3.84328C2.26292 4.00307 2.00795 4.25803 1.84816 4.57164C1.6665 4.92816 1.6665 5.39487 1.6665 6.32829V14.3283C1.6665 15.2617 1.6665 15.7284 1.84816 16.0849C2.00795 16.3985 2.26292 16.6535 2.57652 16.8133C2.93304 16.995 3.39975 16.995 4.33317 16.995Z" stroke="#747474" stroke-width="1.66667"/>
</svg>
