<svg width="63" height="63" viewBox="0 0 63 63" fill="none" xmlns="http://www.w3.org/2000/svg">
<path fill-rule="evenodd" clip-rule="evenodd" d="M44.9232 24.02L30.6482 42.77C30.0607 43.5419 29.1513 43.9981 28.1825 44.0044H28.1607C27.2013 44.0044 26.295 43.5606 25.7013 42.8044L18.1013 33.095C17.0388 31.7388 17.2763 29.7731 18.6357 28.7106C19.9919 27.645 21.9607 27.8825 23.0232 29.245L28.1263 35.7638L39.9513 20.2356C40.995 18.8638 42.9544 18.595 44.3325 19.6419C45.7044 20.6888 45.97 22.6481 44.9232 24.02M31.5013 0.25293C14.242 0.25293 0.251343 14.2436 0.251343 31.5029C0.251343 48.7592 14.242 62.7529 31.5013 62.7529C48.7607 62.7529 62.7513 48.7592 62.7513 31.5029C62.7513 14.2436 48.7607 0.25293 31.5013 0.25293" fill="#37843E"/>
</svg>
