<svg width="33" height="32" viewBox="0 0 33 32" fill="none" xmlns="http://www.w3.org/2000/svg">
<g clip-path="url(#clip0_3816_20301)">
<rect x="8.5" y="2" width="24" height="28" rx="2" fill="#2FB776"/>
<path d="M8.5 23H32.5V28C32.5 29.1046 31.6046 30 30.5 30H10.5C9.39543 30 8.5 29.1046 8.5 28V23Z" fill="url(#paint0_linear_3816_20301)"/>
<rect x="20.5" y="16" width="12" height="7" fill="#229C5B"/>
<rect x="20.5" y="9" width="12" height="7" fill="#27AE68"/>
<path d="M8.5 4C8.5 2.89543 9.39543 2 10.5 2H20.5V9H8.5V4Z" fill="#1D854F"/>
<rect x="8.5" y="9" width="12" height="7" fill="#197B43"/>
<rect x="8.5" y="16" width="12" height="7" fill="#1B5B38"/>
<path d="M8.5 12C8.5 10.3431 9.84315 9 11.5 9H17.5C19.1569 9 20.5 10.3431 20.5 12V24C20.5 25.6569 19.1569 27 17.5 27H8.5V12Z" fill="black" fill-opacity="0.3"/>
<rect x="0.5" y="7" width="18" height="18" rx="2" fill="url(#paint1_linear_3816_20301)"/>
<path d="M13.5 21L10.6821 15.9L13.3763 11H11.177L9.51375 14.1286L7.87801 11H5.60997L8.31787 15.9L5.5 21H7.69931L9.47251 17.6857L11.232 21H13.5Z" fill="white"/>
</g>
<defs>
<linearGradient id="paint0_linear_3816_20301" x1="8.5" y1="26.5" x2="32.5" y2="26.5" gradientUnits="userSpaceOnUse">
<stop stop-color="#163C27"/>
<stop offset="1" stop-color="#2A6043"/>
</linearGradient>
<linearGradient id="paint1_linear_3816_20301" x1="0.5" y1="16" x2="18.5" y2="16" gradientUnits="userSpaceOnUse">
<stop stop-color="#185A30"/>
<stop offset="1" stop-color="#176F3D"/>
</linearGradient>
<clipPath id="clip0_3816_20301">
<rect width="32" height="32" fill="white" transform="translate(0.5)"/>
</clipPath>
</defs>
</svg>
