<svg width="120" height="120" viewBox="0 0 120 120" fill="none" xmlns="http://www.w3.org/2000/svg">
<path d="M71.3086 77.1924H46.3086" stroke="#998DC2" stroke-width="10" stroke-miterlimit="10" stroke-linecap="round" stroke-linejoin="round"/>
<path d="M58.8086 64.9902V89.9902" stroke="#998DC2" stroke-width="10" stroke-miterlimit="10" stroke-linecap="round" stroke-linejoin="round"/>
<path d="M63.2998 12.5907L63.1498 12.9407L48.6498 46.5907H34.3998C30.9998 46.5907 27.7498 47.2907 24.7998 48.5407L33.5498 27.6407L33.7498 27.1407L34.0998 26.3407C34.1998 26.0407 34.2998 25.7407 34.4498 25.4907C40.9998 10.3407 48.3998 6.89068 63.2998 12.5907Z" stroke="#998DC2" stroke-width="10" stroke-linecap="round" stroke-linejoin="round"/>
<path d="M90.2499 47.5928C87.9999 46.8928 85.5999 46.5928 83.1999 46.5928H48.6499L63.1499 12.9428L63.2999 12.5928C64.0499 12.8428 64.7499 13.1928 65.4999 13.4928L76.5499 18.1428C82.6999 20.6928 86.9999 23.3428 89.5999 26.5428C90.0999 27.1428 90.4999 27.6928 90.8499 28.3428C91.2999 29.0428 91.6499 29.7428 91.8499 30.4928C92.0499 30.9428 92.1999 31.3928 92.2999 31.7928C93.6499 35.9928 92.8499 41.1428 90.2499 47.5928Z" stroke="#998DC2" stroke-width="10" stroke-linecap="round" stroke-linejoin="round"/>
<path d="M107.609 70.9918V80.7418C107.609 81.7418 107.559 82.7418 107.509 83.7418C106.559 101.192 96.8086 109.992 78.3086 109.992H39.3086C38.1086 109.992 36.9086 109.892 35.7586 109.742C19.8586 108.692 11.3586 100.192 10.3086 84.2918C10.1586 83.1418 10.0586 81.9418 10.0586 80.7418V70.9918C10.0586 60.9418 16.1586 52.2918 24.8586 48.5418C27.8586 47.2918 31.0586 46.5918 34.4586 46.5918H83.2586C85.7086 46.5918 88.1086 46.9418 90.3086 47.5918C100.259 50.6418 107.609 59.9418 107.609 70.9918Z" stroke="#998DC2" stroke-width="10" stroke-linecap="round" stroke-linejoin="round"/>
<path d="M33.55 27.6416L24.8 48.5416C16.1 52.2916 10 60.9416 10 70.9916V56.3416C10 42.1416 20.1 30.2916 33.55 27.6416Z" stroke="#998DC2" stroke-width="10" stroke-linecap="round" stroke-linejoin="round"/>
<path d="M107.593 56.3383V70.9883C107.593 59.9883 100.293 50.6383 90.293 47.6383C92.893 41.1383 93.643 36.0383 92.393 31.7883C92.293 31.3383 92.143 30.8883 91.943 30.4883C101.243 35.2883 107.593 45.1383 107.593 56.3383Z" stroke="#998DC2" stroke-width="10" stroke-linecap="round" stroke-linejoin="round"/>
</svg>
