<svg width="120" height="120" viewBox="0 0 120 120" fill="none" xmlns="http://www.w3.org/2000/svg">
<path d="M53.7579 84.3018V94.4519C53.7579 103.052 45.7579 110.002 35.9079 110.002C26.0579 110.002 18.0078 103.052 18.0078 94.4519V84.3018C18.0078 92.9018 26.0079 99.0018 35.9079 99.0018C45.7579 99.0018 53.7579 92.8518 53.7579 84.3018Z" stroke="#998DC2" stroke-width="7.5" stroke-linecap="round" stroke-linejoin="round"/>
<path d="M53.7491 70.5487C53.7491 73.0487 53.0491 75.3486 51.8491 77.3486C48.8991 82.1986 42.849 85.2487 35.849 85.2487C28.849 85.2487 22.7989 82.1486 19.8489 77.3486C18.6489 75.3486 17.9492 73.0487 17.9492 70.5487C17.9492 66.2487 19.9491 62.3987 23.1491 59.5987C26.3991 56.7487 30.849 55.0488 35.799 55.0488C40.749 55.0488 45.1991 56.7987 48.4491 59.5987C51.7491 62.3487 53.7491 66.2487 53.7491 70.5487Z" stroke="#998DC2" stroke-width="7.5" stroke-linecap="round" stroke-linejoin="round"/>
<path d="M53.7579 70.5499V84.2999C53.7579 92.8999 45.7579 98.9999 35.9079 98.9999C26.0579 98.9999 18.0078 92.8499 18.0078 84.2999V70.5499C18.0078 61.9499 26.0079 55 35.9079 55C40.8579 55 45.308 56.7499 48.558 59.5499C51.758 62.3499 53.7579 66.2499 53.7579 70.5499Z" stroke="#998DC2" stroke-width="7.5" stroke-linecap="round" stroke-linejoin="round"/>
<path d="M110.001 54.8508V65.1511C110.001 67.9011 107.801 70.1509 105.001 70.2509H95.201C89.801 70.2509 84.8511 66.3009 84.4011 60.9009C84.1011 57.7509 85.301 54.8009 87.401 52.7509C89.251 50.8509 91.801 49.751 94.601 49.751H105.001C107.801 49.851 110.001 52.1008 110.001 54.8508Z" stroke="#998DC2" stroke-width="10" stroke-linecap="round" stroke-linejoin="round"/>
<path d="M10 52.5V42.5C10 28.9 18.2 19.4 30.95 17.8C32.25 17.6 33.6 17.5 35 17.5H80C81.3 17.5 82.55 17.5499 83.75 17.7499C96.65 19.2499 105 28.8 105 42.5V49.7501H94.5999C91.7999 49.7501 89.2499 50.8499 87.3999 52.7499C85.2999 54.7999 84.1 57.75 84.4 60.9C84.85 66.3 89.7999 70.2499 95.1999 70.2499H105V77.5C105 92.5 95 102.5 80 102.5H67.5" stroke="#998DC2" stroke-width="10" stroke-linecap="round" stroke-linejoin="round"/>
</svg>
